<?xml version="1.0" encoding="UTF-8"?>
<svg id="Camada_2" data-name="Camada 2" xmlns="http://www.w3.org/2000/svg" width="840" height="320.05" viewBox="0 0 840 320.05">
  <defs>
    <style>
      .cls-1 {
        fill: #fff;
      }

      .cls-1, .cls-2 {
        stroke-width: 0px;
      }

      .cls-2 {
        fill: #2d0dff;
      }
    </style>
  </defs>
  <g id="Camada_1-2" data-name="Camada 1">
    <rect class="cls-2" y=".5" width="840" height="319.06"/>
    <g>
      <path class="cls-1" d="m243.23,242.5c-.64-5.15-.94-13.03-.94-23.62v-92.69c0-19.5-7.49-34.78-22.49-45.83-15-11.04-37.38-16.57-67.13-16.57-24.75,0-45.43,5.12-62.05,15.33-16.64,10.22-27.19,24.37-31.7,42.47l55.5,6.35c2.75-8.46,7.43-14.91,14.06-19.38,6.62-4.47,14.31-6.7,23.07-6.7,10.24,0,18.01,1.81,23.24,5.45,5.26,3.66,7.88,8.76,7.88,15.33,0,5.42-3.5,9.58-10.5,12.52-7.01,2.94-20.12,5.57-39.38,7.93-27.5,3.29-47.93,9.58-61.3,18.85-13.38,9.29-20.07,23.44-20.07,42.49,0,11.27,3.06,21.08,9.19,29.42,6.12,8.35,14.25,14.75,24.38,19.22,10.11,4.45,21.05,6.68,32.8,6.68,14.5,0,27.69-2.76,39.57-8.28,11.86-5.5,20.43-13.08,25.69-22.72,0,13.63,1.73,22.44,5.24,26.43h59.25c-2.25-3.29-3.7-7.53-4.31-12.7Zm-60.56-59.56c0,8.93-2.31,16.44-6.93,22.56-4.64,6.1-10.32,10.57-17.06,13.38-6.76,2.83-13.5,4.24-20.26,4.24-7.99,0-14.42-1.99-19.3-6-4.89-3.99-7.32-9.39-7.32-16.21,0-7.28,2.93-13.15,8.8-17.62,5.87-4.47,13.69-7.4,23.44-8.81,12.02-1.88,20.76-3.41,26.25-4.59,5.51-1.16,9.63-2.69,12.38-4.57v17.62Z"/>
      <rect class="cls-1" x="255.79" width="59.62" height="255.2"/>
      <path class="cls-1" d="m524.08,109.8c-7.38-14.68-17.62-26.03-30.75-34.03-13.11-7.98-27.92-11.98-44.43-11.98-28.75,0-48.88,9.76-60.37,29.26h-1.5v-24.67h-57.37v251.66h59.62v-87.06h1.5c12.5,17.87,32.37,26.78,59.62,26.78,15.98,0,30.43-3.99,43.31-11.98,12.86-7.98,22.99-19.45,30.37-34.36,7.38-14.93,11.05-32.25,11.05-52s-3.68-36.95-11.05-51.63Zm-61.32,93.92c-7.74,9.41-18.62,14.1-32.62,14.1s-24.19-4.7-32.06-14.1c-7.88-9.39-11.8-23.37-11.8-41.94s3.93-32.18,11.8-41.59c7.88-9.39,18.56-14.1,32.06-14.1s24.57,4.71,32.45,14.1c7.86,9.41,11.8,23.27,11.8,41.59s-3.87,32.55-11.63,41.94Z"/>
    </g>
    <g>
      <path class="cls-1" d="m770.84,211.62s-.08.07-.08.11c-.07.59-.32,1.12-.62,1.62-.91,1.52-2.25,2.43-4,2.7-.71.11-1.42.03-2.12-.1-2.62-.48-5.25-.96-7.87-1.44-2.73-.5-5.47-1.01-8.2-1.51-2.74-.5-5.47-1-8.21-1.5-2.58-.47-5.15-.95-7.73-1.42-.94-.17-1.87-.35-2.82-.5-.31-.05-.47-.18-.61-.46-1.48-3.09-2.97-6.18-4.45-9.27-9.81-20.37-19.61-40.73-29.42-61.1-2.5-5.19-4.98-10.38-7.47-15.57-.39-.82-.82-1.61-1.35-2.35-.4-.55-.85-1.06-1.36-1.51-2.13-1.86-5.4-1.84-7.5-.07-.52.44-.98.94-1.38,1.49-.55.75-.99,1.55-1.39,2.39-6.95,14.46-13.9,28.91-20.85,43.36-6.8,14.13-13.61,28.26-20.41,42.39-.09.19-.19.38-.29.59-.26.05-.52.12-.79.17-3.8.69-7.6,1.38-11.4,2.08-3.28.6-6.55,1.21-9.83,1.8-3.8.69-7.6,1.38-11.4,2.08-.73.13-1.46.27-2.19.4-3.25.57-5.99-1.67-6.47-4.64-.26-1.64.18-3.11,1.26-4.38.78-.91,1.57-1.81,2.36-2.71,7.79-8.94,15.58-17.88,23.37-26.82,3.3-3.79,6.61-7.59,9.92-11.38.54-.62.98-1.29,1.22-2.08.57-1.91.24-3.65-1.01-5.2-.72-.89-1.49-1.75-2.24-2.62-5.95-6.92-11.91-13.83-17.86-20.74-5.1-5.92-10.19-11.84-15.3-17.76-.55-.63-1-1.32-1.23-2.12-.58-2.03-.13-3.85,1.27-5.41,1.03-1.15,2.36-1.73,3.91-1.77.42-.01.84.04,1.25.11,3.19.59,6.39,1.2,9.58,1.8,2.99.56,5.97,1.13,8.96,1.7,2.48.47,4.96.93,7.43,1.4,2.11.4,4.23.8,6.34,1.2,2.14.41,4.29.81,6.43,1.22,2.14.41,4.29.81,6.43,1.21,2.3.44,4.61.87,6.91,1.31.57.11,1.14.21,1.72.32,2.44.44,5.21-.93,6.18-3.61.21-.59.43-1.19.64-1.78,4.16-11.63,8.33-23.25,12.49-34.88,1.7-4.73,3.39-9.46,5.08-14.2.29-.8.68-1.54,1.27-2.16.84-.89,1.88-1.4,3.08-1.63.14-.03.28-.08.42-.11.19,0,.39,0,.58,0,.11.12.27.09.41.12,1.19.23,2.23.76,3.07,1.65.59.62.97,1.36,1.26,2.17,5.61,15.66,11.21,31.32,16.82,46.98.45,1.26.91,2.53,1.36,3.79.35.98.92,1.82,1.73,2.47,1.41,1.13,3.02,1.49,4.79,1.15,2.3-.44,4.6-.88,6.91-1.31,3-.57,6.01-1.13,9.01-1.7,2.83-.53,5.65-1.08,8.48-1.61,3.16-.6,6.32-1.19,9.48-1.79,2.83-.53,5.65-1.08,8.48-1.61,3.57-.68,7.15-1.35,10.72-2.03.56-.1,1.11-.21,1.68-.18,1.54.06,2.87.64,3.9,1.8,1.34,1.5,1.82,3.25,1.3,5.22-.22.86-.69,1.59-1.27,2.27-4.28,4.96-8.55,9.93-12.82,14.89-7.11,8.26-14.23,16.52-21.34,24.79-.41.48-.83.95-1.23,1.44-.84,1.01-1.28,2.16-1.29,3.47-.01,1.44.48,2.68,1.43,3.77,3.47,3.97,6.93,7.95,10.39,11.93,7.99,9.17,15.98,18.34,23.97,27.52.45.51.9,1.02,1.34,1.54.58.69,1.02,1.45,1.16,2.36,0,.04.05.08.07.12v2.14Z"/>
      <path class="cls-1" d="m679.69,259.77c-.07-.03-.14-.07-.22-.09-2.1-.4-3.52-1.62-4.24-3.63-.73-2.04-1.44-4.09-2.15-6.13-4.77-13.59-9.54-27.18-14.31-40.76-.33-.95-.66-1.89-1-2.86,7.63-15.88,15.28-31.77,22.93-47.68.19.15.23.33.31.48.93,1.92,1.85,3.85,2.77,5.77,6.55,13.62,13.1,27.24,19.65,40.87.33.69.3.46.07,1.13-4.61,13.13-9.22,26.26-13.82,39.39-1.13,3.22-2.26,6.44-3.39,9.65-.09.26-.18.52-.3.77-.8,1.64-2.11,2.62-3.88,2.99-.12.03-.25.07-.37.1h-2.04Z"/>
    </g>
  </g>
</svg>