<svg xmlns="http://www.w3.org/2000/svg" width="48" height="49" viewBox="0 0 48 49"><g transform="translate(-47.998 -52.502)"><path d="M18460.275,17997.482c-3.33,3.516-8.459,3.516-8.459,3.516-11.262,0-11.262-11.426-11.262-11.426v-19.047h5.629v19.047c0,5.713,5.633,5.713,5.633,5.713,5.629,0,5.629-5.713,5.629-5.713v-19.047h5.629v19.047c0,5.713,5.629,5.713,5.629,5.713,5.629,0,5.629-5.713,5.629-5.713v-19.047h5.629v19.047c0,11.426-11.258,11.426-11.258,11.426C18464.551,18001,18461.932,17999.443,18460.275,17997.482Zm5.5-15.012v-19.041c0-5.719-5.633-5.719-5.633-5.719-5.629,0-5.629,5.719-5.629,5.719v19.041h-5.627v-19.041c0-5.719-5.631-5.719-5.631-5.719-5.629,0-5.629,5.719-5.629,5.719v19.041H18432v-19.041c0-11.432,11.258-11.432,11.258-11.432,4.152,0,6.771,1.555,8.428,3.516,3.336-3.512,8.459-3.516,8.459-3.516,11.262,0,11.262,11.432,11.262,11.432v19.041Zm8.594-24.541v-5.711H18480v5.711Z" transform="translate(-18384 -17899.496)" fill="#fff"/></g></svg>