<svg xmlns="http://www.w3.org/2000/svg" width="1823.996" height="142" viewBox="0 0 1823.996 142"><path d="M22191.82,18127.34q-26.66-19.025-26.641-57.1,0-36.609,26.641-55.617,20.5-14.607,49.215-14.631,28.711,0,49.215,14.631,26.678,19.008,26.652,55.617,0,38.051-26.652,57.1-20.508,14.643-49.215,14.656Q22212.365,18142,22191.82,18127.34Zm23.6-113.463q-17.426,12.422-17.441,56.367,0,46.834,17.441,59.277a44.641,44.641,0,0,0,51.246,0q17.426-12.428,17.441-59.277,0-43.951-17.441-56.367a44.971,44.971,0,0,0-51.246,0Zm242.434,125.9v-5.855h5.125q11.268,0,17.438-4.4c4.1-2.908,6.16-7.814,6.16-14.631v-92.227c0-4.387-2.059-8.037-6.16-10.994-4.125-2.922-11.637-4.352-22.562-4.352v-5.879h86.141v5.879c-11.664,0-19.5,1.43-23.6,4.352-3.426,2.453-5.148,6.137-5.148,10.994v93.68a14.459,14.459,0,0,0,6.145,12.449q7.225,5.124,22.6,5.129v5.855Zm-533.469,0v-5.129c8.906,0,15.395-1.43,19.508-4.426,3.387-2.4,5.148-6.336,5.148-11.709v-32.91l-46.184-69.533a22.976,22.976,0,0,0-5.113-5.127,24.129,24.129,0,0,0-14.387-4.377v-5.127h71.77v5.127c-7.516,0-12.66.973-15.348,2.922-4.113,2.957-4.469,7.074-1.035,12.449l33.859,50.488,30.73-48.307c3.434-6.312,2.746-11.219-2.07-14.631q-4.1-2.924-18.426-2.922v-5.127h58.441v5.127c-7.551,0-13.008,1.207-16.406,3.66a44.3,44.3,0,0,0-10.273,10.984l-36.887,57.07v39.506c0,6.373,1.676,10.76,5.125,13.213,3.4,2.439,9.25,3.648,17.426,3.648v5.129Zm-530.8,0v-5.855c7.512,0,12.969-1.209,16.418-3.662q5.115-3.659,5.113-10.98v-111.961l-50.227,132.459h-4.1l-51.262-125.9v101.014q0,10.983,5.113,14.631,6.152,4.418,19.508,4.4v5.855h-56.41v-5.855q13.3,0,19.512-4.4c2.707-1.947,4.063-6.842,4.063-14.631v-95.875c0-8.309-7.859-12.67-23.574-13.215v-5.066h56.41l38.93,95.887,36.926-95.887h54.328v5.832c-7.551,0-12.637.973-15.395,2.922a11.886,11.886,0,0,0-5.1,10.266v99.525a11.817,11.817,0,0,0,5.1,10.242c4.137,2.945,9.25,4.4,15.395,4.4v5.855Zm-348.453,0v-5.855h5.125c7.512,0,13.34-1.455,17.4-4.4,4.125-2.908,6.156-7.814,6.156-14.631v-92.227c0-4.387-2.031-8.037-6.156-10.994-4.062-2.922-11.578-4.352-22.527-4.352v-5.879h86.129v5.879c-11.641,0-19.484,1.43-23.551,4.352-3.445,2.453-5.145,6.137-5.145,10.994v93.68q0,8.045,6.121,12.449c4.813,3.416,12.316,5.129,22.574,5.129v5.855Zm-209.289,0v-5.855c7.512,0,12.957-1.209,16.418-3.662,3.41-2.439,5.148-6.1,5.148-10.98v-111.961l-50.277,132.459h-4.086l-51.238-125.9v101.014c0,7.322,1.676,12.2,5.1,14.631q6.129,4.418,19.484,4.4v5.855H20720v-5.855q13.359,0,19.5-4.4c2.711-1.947,4.066-6.842,4.066-14.631v-95.875c0-8.309-7.859-12.67-23.562-13.215v-5.066h56.4l38.969,95.887,36.9-95.887h54.34v5.832q-11.256,0-15.387,2.922a11.985,11.985,0,0,0-5.109,10.266v99.525a11.915,11.915,0,0,0,5.109,10.242c4.1,2.945,9.238,4.4,15.387,4.4v5.855Zm771.617-8.506c21.219,0,21.9-13.521,21.9-13.521v-97.293s-.68-13.545-21.9-13.545c0,0-.875-6.744-.336-6.324h141.984v49.158h-7.23s-2.008-40.924-45.457-41.91l-17.812-.592s-20.543-2.256-19.816,19.18v39.395s41.691,5.635,41.691-30.543h7.18v67.646h-7.18c0-36.2-41.691-30.533-41.691-30.533v39.395c-.727,21.361,19.816,19.166,19.816,19.166l17.813-.59c43.449-.961,45.457-41.9,45.457-41.9h7.23v49.145h-141.984c-.012.012-.023.012-.047.012C21606.633,18137.619,21607.461,18131.271,21607.461,18131.271Z" transform="translate(-20719.996 -17999.996)"/></svg>