<?xml version="1.0" encoding="UTF-8"?>
<svg id="Camada_2" data-name="Camada 2" xmlns="http://www.w3.org/2000/svg" width="2232.06" height="850.44" viewBox="0 0 2232.06 850.44">
  <defs>
    <style>
      .cls-1 {
        fill: #fff;
      }

      .cls-1, .cls-2 {
        stroke-width: 0px;
      }

      .cls-2 {
        fill: #2d0dff;
      }
    </style>
  </defs>
  <g id="Camada_1-2" data-name="Camada 1">
    <g>
      <rect class="cls-2" y="1.32" width="2232.06" height="847.81"/>
      <g>
        <path class="cls-1" d="m646.32,644.37c-1.69-13.69-2.51-34.63-2.51-62.76v-246.3c0-51.82-19.91-92.43-59.77-121.77-39.86-29.35-99.32-44.02-178.38-44.02-65.75,0-120.71,13.6-164.87,40.75-44.21,27.15-72.25,64.76-84.23,112.85l147.47,16.87c7.32-22.48,19.75-39.63,37.35-51.49,17.6-11.87,38.02-17.8,61.3-17.8,27.22,0,47.84,4.81,61.76,14.49,13.97,9.72,20.93,23.27,20.93,40.75,0,14.39-9.31,25.47-27.89,33.27-18.63,7.8-53.47,14.81-104.64,21.07-73.07,8.74-127.36,25.47-162.88,50.09-35.56,24.67-53.32,62.29-53.32,112.89,0,29.95,8.14,56.03,24.41,78.18,16.27,22.2,37.87,39.2,64.78,51.07,26.86,11.82,55.93,17.76,87.14,17.76,38.53,0,73.58-7.34,105.16-22.01,31.52-14.63,54.29-34.77,68.26-60.37,0,36.21,4.61,59.62,13.92,70.23h157.45c-5.99-8.74-9.83-20-11.46-33.74Zm-160.93-158.27c0,23.74-6.14,43.69-18.42,59.95-12.33,16.21-27.43,28.08-45.34,35.56-17.96,7.52-35.87,11.26-53.83,11.26-21.24,0-38.33-5.28-51.27-15.93-13-10.61-19.44-24.95-19.44-43.08,0-19.35,7.78-34.95,23.38-46.82,15.61-11.87,36.38-19.67,62.27-23.41,31.93-5,55.16-9.07,69.75-12.2,14.63-3.08,25.59-7.15,32.9-12.15v46.82Z"/>
        <rect class="cls-1" x="679.68" width="158.42" height="678.11"/>
        <path class="cls-1" d="m1392.59,291.77c-19.6-39.02-46.82-69.16-81.72-90.42-34.85-21.21-74.2-31.82-118.05-31.82-76.4,0-129.87,25.93-160.42,77.75h-3.99v-65.56h-152.44v668.72h158.42v-231.35h3.99c33.21,47.48,86.02,71.17,158.42,71.17,42.47,0,80.85-10.61,115.08-31.82,34.18-21.21,61.1-51.68,80.7-91.31,19.6-39.67,29.37-85.7,29.37-138.17s-9.77-98.17-29.37-137.19Zm-162.93,249.57c-20.57,25-49.48,37.48-86.68,37.48s-64.27-12.48-85.2-37.48c-20.93-24.95-31.37-62.1-31.37-111.45s10.44-85.51,31.37-110.51c20.93-24.95,49.33-37.48,85.2-37.48s65.29,12.52,86.22,37.48c20.88,25,31.37,61.82,31.37,110.51s-10.29,86.49-30.91,111.45Z"/>
      </g>
      <g>
        <path class="cls-1" d="m2048.3,562.32c-.07.1-.2.19-.22.29-.2,1.57-.84,2.98-1.64,4.3-2.43,4.03-5.97,6.47-10.63,7.18-1.89.29-3.77.09-5.64-.25-6.97-1.29-13.94-2.55-20.92-3.83-7.27-1.33-14.53-2.68-21.8-4.01-7.27-1.33-14.54-2.64-21.81-3.97-6.85-1.25-13.69-2.51-20.53-3.77-2.49-.46-4.98-.94-7.48-1.34-.81-.13-1.26-.48-1.62-1.22-3.92-8.22-7.88-16.42-11.83-24.63-26.06-54.12-52.12-108.23-78.17-162.35-6.63-13.78-13.23-27.58-19.84-41.37-1.04-2.17-2.19-4.29-3.6-6.25-1.06-1.47-2.25-2.81-3.62-4.01-5.67-4.94-14.35-4.89-19.93-.19-1.39,1.17-2.6,2.5-3.68,3.96-1.46,1.98-2.63,4.13-3.7,6.34-18.47,38.41-36.93,76.82-55.41,115.23-18.07,37.55-36.15,75.1-54.23,112.65-.24.5-.49,1-.78,1.58-.68.14-1.38.31-2.1.44-10.1,1.84-20.2,3.68-30.3,5.52-8.7,1.59-17.41,3.2-26.11,4.79-10.1,1.85-20.2,3.68-30.3,5.52-1.94.35-3.89.72-5.83,1.06-8.64,1.51-15.92-4.44-17.19-12.34-.7-4.36.47-8.27,3.34-11.63,2.06-2.42,4.17-4.8,6.26-7.2,20.7-23.76,41.4-47.52,62.09-71.28,8.78-10.08,17.56-20.17,26.35-30.24,1.43-1.64,2.6-3.43,3.23-5.52,1.53-5.07.64-9.7-2.7-13.81-1.92-2.37-3.97-4.64-5.96-6.95-15.82-18.37-31.63-36.75-47.45-55.12-13.55-15.74-27.09-31.47-40.64-47.2-1.45-1.68-2.67-3.5-3.28-5.64-1.55-5.4-.35-10.22,3.37-14.37,2.75-3.06,6.28-4.6,10.39-4.71,1.11-.03,2.24.1,3.33.3,8.49,1.57,16.97,3.18,25.46,4.79,7.93,1.5,15.87,3.01,23.8,4.52,6.58,1.25,13.17,2.48,19.76,3.72,5.61,1.06,11.23,2.12,16.84,3.18,5.7,1.08,11.39,2.16,17.09,3.24,5.7,1.08,11.4,2.15,17.1,3.23,6.12,1.16,12.24,2.32,18.36,3.47,1.52.29,3.04.56,4.56.84,6.49,1.18,13.85-2.46,16.41-9.58.57-1.58,1.14-3.15,1.7-4.73,11.07-30.9,22.13-61.79,33.2-92.69,4.5-12.58,9.02-25.15,13.51-37.73.76-2.13,1.8-4.09,3.37-5.73,2.24-2.35,5.01-3.73,8.18-4.32.37-.07.74-.2,1.11-.3.52,0,1.03,0,1.55,0,.3.31.72.25,1.09.32,3.17.62,5.92,2.01,8.15,4.38,1.56,1.66,2.57,3.63,3.34,5.75,14.89,41.61,29.8,83.22,44.7,124.83,1.2,3.36,2.41,6.71,3.61,10.07.93,2.61,2.44,4.83,4.61,6.56,3.76,2.99,8.01,3.96,12.72,3.05,6.11-1.18,12.23-2.34,18.35-3.49,7.98-1.51,15.96-3,23.93-4.5,7.51-1.42,15.02-2.86,22.53-4.28,8.4-1.59,16.8-3.16,25.2-4.74,7.51-1.42,15.02-2.86,22.53-4.28,9.49-1.8,18.99-3.59,28.49-5.39,1.48-.28,2.96-.55,4.48-.49,4.11.17,7.63,1.7,10.36,4.77,3.56,4,4.82,8.64,3.46,13.88-.6,2.29-1.83,4.24-3.37,6.02-11.36,13.19-22.72,26.38-34.07,39.58-18.9,21.96-37.8,43.91-56.7,65.86-1.09,1.27-2.2,2.53-3.28,3.81-2.23,2.67-3.4,5.74-3.44,9.23-.04,3.82,1.28,7.13,3.79,10.01,9.21,10.56,18.41,21.13,27.61,31.69,21.23,24.37,42.46,48.74,63.7,73.12,1.19,1.36,2.39,2.71,3.55,4.09,1.53,1.84,2.72,3.86,3.08,6.28.02.12.13.22.19.33v5.67Z"/>
        <path class="cls-1" d="m1806.09,690.26c-.19-.08-.38-.19-.58-.23-5.59-1.07-9.35-4.3-11.26-9.65-1.93-5.42-3.81-10.86-5.72-16.29-12.68-36.11-25.35-72.21-38.03-108.32-.88-2.51-1.76-5.02-2.66-7.61,20.29-42.19,40.59-84.41,60.93-126.69.51.39.62.87.82,1.28,2.46,5.11,4.91,10.22,7.37,15.33,17.41,36.2,34.82,72.39,52.22,108.59.88,1.83.8,1.23.18,3.01-12.24,34.89-24.49,69.79-36.73,104.68-3,8.55-6,17.1-9.01,25.65-.24.69-.49,1.38-.81,2.03-2.12,4.36-5.6,6.97-10.32,7.94-.33.07-.65.18-.98.27h-5.42Z"/>
      </g>
    </g>
  </g>
</svg>