<svg xmlns="http://www.w3.org/2000/svg" version="1.1" xmlns:xlink="http://www.w3.org/1999/xlink" width="1000" height="1000"><svg id="SvgjsSvg1007" data-name="Camada 1" xmlns="http://www.w3.org/2000/svg" viewBox="0 0 1000 1000">
  <defs>
    <style>
      .cls-1 {
        fill: #050505;
      }

      .cls-1, .cls-2 {
        stroke-width: 0px;
      }

      .cls-2 {
        fill: #fff;
      }
    </style>
  </defs>
  <rect class="cls-1" width="1000" height="1000"></rect>
  <g>
    <path class="cls-2" d="m881.11,717.1c-.12.24-.31.47-.34.72-.71,4.87-3.09,8.89-6.52,12.26-5.59,5.48-12.36,7.65-20.09,6.39-6.67-1.08-13.31-2.38-19.95-3.59-7.86-1.43-15.71-2.87-23.57-4.31-8.6-1.57-17.19-3.15-25.79-4.72-7.92-1.45-15.85-2.89-23.77-4.34-8.46-1.55-16.92-3.09-25.38-4.64-8.66-1.59-17.32-3.17-25.99-4.76-2.08-.38-4.16-.77-6.31-1.17-.35-.68-.7-1.33-1.02-2-24.62-51.13-49.23-102.26-73.85-153.39-27.19-56.48-54.39-112.96-81.58-169.45-6.31-13.11-12.56-26.24-18.84-39.36-1.74-3.64-3.64-7.19-6.01-10.47-1.57-2.16-3.34-4.15-5.33-5.94-9.15-8.24-23.61-8.24-32.78.09-2.76,2.5-5.09,5.34-7,8.52-1.41,2.34-2.73,4.74-3.91,7.19-29.35,60.98-58.66,121.97-88,182.95-28.87,60-57.75,119.98-86.63,179.97-.27.55-.55,1.1-.9,1.79-1.11.24-2.3.52-3.49.74-12.36,2.25-24.72,4.48-37.08,6.74-13.03,2.38-26.05,4.8-39.08,7.18-10.88,1.99-21.76,3.94-32.64,5.93-11.55,2.11-23.09,4.26-34.65,6.36-2.28.41-4.55.89-6.89.98-12.66.45-22.43-9.15-23.99-20.3-.11-.82-.18-1.64-.81-2.27v-2.05c.6-.64.7-1.45.81-2.27.3-2.32,1.04-4.51,2.06-6.62,1.14-2.36,2.75-4.39,4.46-6.35,14.33-16.43,28.64-32.86,42.96-49.3,32.18-36.94,64.36-73.88,96.54-110.82,3.5-4.02,7.05-8,10.49-12.07,4.89-5.79,6.57-12.47,5.11-19.91-.81-4.12-2.78-7.66-5.51-10.83-20.83-24.17-41.64-48.36-62.46-72.54-28.89-33.56-57.78-67.11-86.66-100.67-.62-.72-1.23-1.47-1.78-2.25-3.75-5.37-5.11-11.29-3.79-17.71,2.47-12.04,13.8-21.15,27.52-18.63,8.73,1.6,17.44,3.28,26.16,4.94,11.2,2.12,22.4,4.26,33.6,6.38,11.2,2.12,22.41,4.21,33.61,6.32,13.35,2.52,26.69,5.08,40.04,7.6,14.09,2.66,28.18,5.29,42.27,7.96,16.9,3.2,33.8,6.42,50.71,9.62,7.42,1.41,14.11-.21,20.01-4.93,3.62-2.9,5.97-6.67,7.52-11.03,5.4-15.18,10.85-30.35,16.28-45.52,18-50.27,36-100.54,54.01-150.8,2.16-6.04,4.33-12.08,6.49-18.13,1.14-3.19,2.78-6.08,5.12-8.55,3.56-3.75,7.93-5.95,12.98-6.91.52-.1,1.02-.3,1.53-.45.96,0,1.91,0,2.87,0,.51.15,1.01.35,1.53.45,5.04.96,9.43,3.16,12.98,6.91,2.39,2.52,4.02,5.48,5.19,8.74,3.87,10.87,7.78,21.72,11.67,32.59,16.58,46.27,33.15,92.55,49.73,138.83,5.18,14.46,10.37,28.92,15.53,43.39,1.17,3.27,2.85,6.21,5.32,8.66,6.19,6.13,13.6,8.34,22.15,6.72,4.63-.88,9.25-1.78,13.88-2.65,14.09-2.66,28.18-5.29,42.26-7.96,14.82-2.8,29.64-5.63,44.46-8.44,11.94-2.26,23.89-4.48,35.82-6.74,16.23-3.07,32.46-6.16,48.69-9.24,13.62-2.58,27.23-5.15,40.85-7.7,1.95-.37,3.92-.6,5.91-.47,6.28.42,11.68,2.79,15.9,7.48,5.64,6.27,7.69,13.56,5.68,21.84-.91,3.72-2.87,6.9-5.36,9.79-12.09,14.02-24.17,28.06-36.25,42.09-34.63,40.23-69.27,80.46-103.9,120.7-3.12,3.62-6.28,7.22-9.35,10.88-4.92,5.88-6.55,12.63-5,20.13.82,3.96,2.72,7.41,5.38,10.45,5.71,6.53,11.4,13.08,17.1,19.62,27.28,31.32,54.57,62.64,81.85,93.97,17.01,19.52,34.02,39.04,51.02,58.58.94,1.08,1.86,2.19,2.64,3.39,1.58,2.41,2.88,4.96,3.2,7.89.03.25.23.48.35.71v7.79Z"></path>
    <path class="cls-2" d="m496.51,921.29c-.38-.13-.76-.3-1.15-.37-8.82-1.58-14.86-6.55-18.01-14.92-1.73-4.6-3.28-9.27-4.91-13.91-18.7-53.27-37.4-106.55-56.1-159.82-4.09-11.66-8.18-23.32-12.27-34.98-.11-.32-.19-.66-.34-.97-.28-.6-.3-1.17.05-1.75.21-.35.35-.74.53-1.11,31.64-65.78,63.28-131.57,94.91-197.35.32-.67.67-1.33,1.04-2.06.75.43.87,1.14,1.15,1.71,4.98,10.33,9.95,20.67,14.93,31.01,26.66,55.45,53.33,110.89,79.99,166.34,1.36,2.83,1.3,1.67.21,4.77-24.19,68.93-48.38,137.86-72.58,206.78-.47,1.35-.98,2.7-1.62,3.98-3.4,6.74-8.93,10.69-16.27,12.19-.59.12-1.18.3-1.76.45h-7.79Z"></path>
  </g>
</svg><style>@media (prefers-color-scheme: light) { :root { filter: none; } }
@media (prefers-color-scheme: dark) { :root { filter: invert(100%); } }
</style></svg>