<?xml version="1.0" encoding="UTF-8"?>
<svg id="Camada_2" data-name="Camada 2" xmlns="http://www.w3.org/2000/svg" width="1476.46" height="1020" viewBox="0 0 1476.46 1020">
  <defs>
    <style>
      .cls-1 {
        stroke-width: 0px;
      }
    </style>
  </defs>
  <g id="logos">
    <g>
      <path class="cls-1" d="m1165.01,667.46h-28.59c-2.4,15.17-13.39,20.94-26.59,24.68-8.12,2.3-16.23,5.3-20.11,15.64,8.05,3.87,15.94,7.66,23.75,11.41,3.1,10.27,4.43,20.23.33,29.47-13.79,31.14-28.21,61.99-42.49,92.91-.88,1.9-2.68,3.36-4.85,6-22.09-10.01-43.93-19.91-67.4-30.55,4.11-9.9,7.52-18.49,11.23-26.94,9.73-22.15,19.82-44.15,29.31-66.4,4.85-11.36,13.12-18.89,24.18-25.08,6.04,2.15,12.32,4.37,20.18,7.16,7.25-12.46,19.8-17.73,33.29-21.84,6.53-1.99,11.89-6.08,12.56-15.59-19.42-4.23-39.21.65-60.21-3.54.62-33.55,3.74-66.59,6.9-101.56,22.24,0,43.18,0,64.12,0s42.04,0,64.47,0c9.29-21.67,18.38-42.86,27.87-64.98,30.06,10.08,58.46,20.2,86.76,32.86-2.82,10.72-5.27,20.03-8.36,31.75,45.45.96,89.08-.19,132.18.65,2.75,10.53-6.9,84.95-13.3,103.7h-35.06c-11.5,0-23.01,0-36.74,0,39.26,105.91,78.87,211.44,118.02,317.38-31.42,10.79-61.29,21.04-92.59,31.78-16.81-34.44-25.78-71.16-42.58-106.89-51.79-8.14-104.67-16.46-159.05-25.01-18.37,43.06-36.4,85.34-55.19,129.38-31.55-9.58-62.49-18.97-95.21-28.9,44.82-106.86,88.74-211.6,133.16-317.5Zm96.99,27.05c-13.22,31.44-25.47,60.59-38.47,91.51,26,4.08,50.3,7.88,76.97,12.06-13.18-35.45-25.33-68.14-38.5-103.57Z"/>
      <path class="cls-1" d="m910.39,816.24c9.06,19.64,15.66,44.34,31.83,59.47,11.28,10.55,24.55,19.85,38.48,26.54,2.81,1.35,40.17,12.4,39.71,9.24,4.94,33.35-3.89,74.94-7.56,108.52-5.77-.6-10.11-.84-14.37-1.56-5.74-.97-11.36-2.94-17.11-3.42-46.82-3.85-79.69-30.33-105.35-66.75-17.24-24.47-31.99-50.69-47.76-76.18-2.79-4.51-5.13-9.3-8.59-15.64-17.17,8.02-33.62,15.7-51.72,24.15v121.11c-13.1,4.33-86.32,4.68-99.03.77-.24-4.32-.71-9.12-.73-13.92-.34-84.85-2.4-169.73-1.54-254.58.24-23.7.93-47.39,1.44-71.97,13.07-7.6,25.64-14.91,38.21-22.22l-.41-2.48h-64.46c4.84-36.02,15.03-68.79,20.7-103.6,5.36-.65,10.07-1.72,14.77-1.72,92.34-.1,184.69-.17,277.03-.02,29.63.05,51.75,22.42,51.76,51.93.02,39.9,1.43,79.88-.77,119.66-2.07,37.63-14.65,71.13-51.61,89.73-14.27,7.18-29.7,14.09-42.91,22.96Zm-141.74-149.15c-.04,27.66.27,66.16.29,71.21.05,10.64-3.6,22.15,8.91,23.67,8.04.98,21.08-7.27,28.44-10.16,22.48-8.82,44.99-17.6,67.39-26.61,14.26-5.74,27.75-14.5,29.92-30.13,2.54-18.24.59-37.11.59-56.52h-134.98c-.39,0-.54,12.43-.56,28.53Z"/>
      <path class="cls-1" d="m828.91,346.53c.23-72.15,1.51-144.31,1.39-216.48-.04-22.51-3.01-44.68-10.21-66.09-7.87-23.41-20.46-32.38-44.82-32.38-62.28-.02-124.57-.03-186.85.04-5.74,0-11.48.62-17.62.97-7.78,12.32-15.28,24.19-22.77,36.06-.87-.32-1.75-.64-2.62-.96V31.9c-34.5,7.31-66.6,14.11-99.64,21.11-5.66,1.2.99,163.78,1.08,179.62.3,48.82-.11,97.65-.5,146.47-.27,34.29-7.59,77.52,25.75,99.44,11,7.23,23.4,8.23,36.12,8.22,84.69-.07,169.38-.03,254.07-.07,5.37,0,10.78,0,16.11-.54,36.84-3.76,51.22-24.91,50.8-59.73-.32-26.63-.37-53.26-.29-79.89Zm-282.15-212.08h182.46v81.9c-20.34,14.98-39.71,29.26-61.19,45.08-19.31-4.66-41.43-5.35-62.25.66-19.87-14.81-38.79-28.91-59.03-43.99v-83.65Zm172.72,265.89c6.37-15.81,13.29-29.22,10.86-46.98-2.19,4.15-3.62,6.44-4.66,8.89-8.42,19.76-17.33,25.41-38.96,24.4-7.55-.35-13.3,2.36-15.94,9.64-2.15,5.93-.01,10.28,6.8,13.07.52-3.58.93-6.45,1.57-10.9,4.19.3,8.11.58,14.63,1.05-3.45,6.53-5.62,10.63-8.57,16.21,2.49,3.09,5.41,6.71,8.16,10.13h25.16c-10.83,8.45-20.83,12.84-33.15,9.33-6.02-1.71-12.36-2.64-18.08-5.05-19.66-8.27-38.98-8.46-58.72-.04-6.92,2.95-14.63,4.11-22.03,5.86-7.83,1.86-14.76-.82-21.54-3.67,7.47-3.68,14.94-6.2,20.86-10.75,3.19-2.45,3.73-8.36,5.95-13.93-3.84.45-5.67.66-7.87.92-1.55-8.02,1.37-11.07,9.85-9.38,1.27,3.05,2.58,6.2,4,9.6,1.56-.73,3.28-.96,3.79-1.86,5.76-10.26-.37-21.64-11.74-19.54-23.1,4.26-34.18-7.73-41.5-26.75-.57-1.49-1.66-2.78-3.72-6.15-2.43,17.25,3.32,30.47,8.43,43.95-9.85-9.75-18.91-18.97-16.6-35.12,2.19-15.34-1.47-31.48,6.31-46.12,1.03-1.94,2-3.92,3.24-6.35,6.92-.23,14.16,7.96,21.58-.95-3.87-1.29-7.01-2.34-10.36-3.46-5.49-16.86,10.57-23.22,17.08-35.47-3.9-18.69-18.5-30.81-32.31-46.04,13.35,4.68,23.46,11.08,31.94,19.58,8.17,8.2,15.37,17.37,24.52,27.85,1.82,6.72,4.26,15.76,7.1,26.25,5.04,1.86,10.38,3.84,15.73,5.82l1.52-2.34c-7.52-9.16-17.61-16.89-18.22-31.16,3.4-1.62,6.83-3.26,11.08-5.28,7.1,5.99,13.86,11.69,21.66,18.27,6.29-5.69,12.77-11.54,20-18.09,4,1.15,8.07,2.32,12.54,3.61-2.14,14.14-9.74,23.83-19.47,32.93,16.89.87,19.04-1.96,24.63-30.4,15.87-14.4,25.01-35.77,48.89-43.3-1.87,3.5-2.92,6.06-4.49,8.26-3.12,4.37-6.72,8.4-9.78,12.81-12.42,17.93-12.26,18.1,1.56,35.59,4.37,5.53,9.3,11.19,6.34,20.04-3.13,1.26-6.56,2.64-10.24,4.13q7.65,4.54,20.27.99c6.05,6.52,1,14.53,2.67,22.65,1.89,2.34,4.38,5.4,6.54,8.07-1.24,43.6-1.5,44.59-17.34,59.17Z"/>
      <path class="cls-1" d="m504.7,667.07h73.71c5.04-34.65,9.89-67.97,15.09-103.75h-135.9c2.97-12.15,5.35-21.91,8.12-33.27-28.99-10.92-56.85-21.42-86.02-32.42-9.46,22.13-18.2,42.57-27.34,63.95-6.52.57-12.65,1.54-18.78,1.57-31.82.16-63.65.03-95.47.13-4.73.02-9.45.75-15.31,1.25-2.62,34.02-5.14,66.79-7.83,101.81,17.48.1,32.99.05,48.5.33,15.34.28,30.79-1.01,47.34,1.18-23.18,58.21-48.14,115.96-72.4,173.87-5.1,12.18-57.84,143.95-60.07,143.27,32.55,9.86,63.16,19.14,95.27,28.87,18.27-42.97,36.04-84.75,53.93-126.83,55.24,8.21,108.61,16.14,161.76,24.04,13.46,35.6,26.4,69.83,40.02,105.87,32.15-12.07,63.35-19.81,93.38-33.51-39.38-105.57-78.27-209.83-118.01-316.36Zm-135,119.9c13-30.95,25.07-59.69,37.14-88.43l2.89-.39c12.06,32.19,24.12,64.37,37.39,99.79-27.93-2.6-51.81-6.29-77.41-10.97Z"/>
      <path class="cls-1" d="m314,163.23h71.74c4.68-33.65,9.14-65.72,13.88-99.81h-131.41c3.22-12.23,5.67-21.54,8.5-32.28-28.19-10.1-54.51-21.77-83.37-31.14-9.16,22.01-17.53,42.1-26.15,62.82-41.76.79-82.74-.43-124.99.73-2.46,33.61-4.76,65.11-7.16,97.9,6.62.55,11.84,1.3,17.06,1.35,20.61.16,41.22.04,61.84.18,3.68.02,7.32.21,10.77,1.05-18.89,50.43-37.9,100.64-58.62,150.37C60.61,327.52,2.3,470.08,0,469.38c31.55,9.69,60.77,18.66,91.42,28.08,43.52-103.04,86.21-204.1,130.11-308.04,39.48,105.3,77.75,207.36,116.55,310.86,30.82-10.77,59.72-20.87,90.34-31.57-38.36-102.41-75.95-202.76-114.43-305.48Z"/>
      <path class="cls-1" d="m1200.34,359.99c-6.46,4.04-10.41,6.86-14.67,9.09-14.83,7.76-29.47,17.01-45.15,5.46-17.35-12.78-30.72-38.82-41.99-56.77-8.67-13.82-16.85-27.93-24.84-42.15-4.87-8.67-20.59-27.17-14.94-37.59,8.23-15.17,144.15-138.7,140.77-142.24-23.61-24.77-45.73-47.97-68.71-72.08-28.2,28.19-56.15,56.42-84.44,84.33-28.05,27.68-55.31,56.19-85.53,84.89,3.2-3.04-.12-26.7-.35-31.13-1.95-38.06-.59-77,.59-115.09-1.25-3.98-2.34-8.03-3.24-12.18h-94.29v453.03h95.31c.34-6.33.87-11.56.87-16.79.07-42.59.8-85.2-.35-127.76-.45-16.7,7.48-25.19,20.75-32.75,6.47,11.68,12.43,22.67,18.61,33.53,21.94,38.54,44.09,76.87,70.79,112.51,16.47,21.98,37.13,33.47,64.04,37.14,43.23,5.9,75.54-11.47,102.94-44.34-11.81-29.09-23.54-57.98-36.18-89.12Z"/>
      <path class="cls-1" d="m149.51,531.11c-34.7,2.76-69.13,9.09-103.86,15.08,0,75.18.69,150.23.82,225.29.07,40.77.41,81.54.06,122.3-.18,20.86-.52,41.71-1.17,62.56-.3,9.48-5.91,39.96,5.52,45.82,7.85,4.03,98,4.46,99.44-1.25,3.28-13.02,2.97-457.84-.82-469.82Z"/>
      <path class="cls-1" d="m1405.1,392.89V132.22c9.8-.71,18.53-1.34,26.65-1.92,6.32-15.79,15.21-83.32,12.56-95.77h-180.19c-3.17,32.17-8.47,63.18-8.89,96.74h79.76c.1.85.19,1.7.29,2.55-11.11,6.45-22.22,12.9-34.53,20.06-2.86,1.66.18,33.68.29,37.08.57,18.69,1,37.38,1.31,56.07.79,48.07.28,96.22-3.78,144.04-11.46,2.22-24.17,1.51-35.89,2.02-3.97,32.17-7.54,62.86-9.59,94.62h181.06c5.56-17.21,8.46-81.57,4.17-93.15-10.62-.53-21.59-1.08-33.21-1.66Z"/>
      <path class="cls-1" d="m236.31,338.87c18.06,19.69,34.59,37.71,52.62,57.37-31.95,32.08-63.05,63.31-95.55,95.94-17.75-19.01-34.69-37.14-53.04-56.8,31.93-32.11,63.01-63.37,95.96-96.51Z"/>
      <path class="cls-1" d="m727.22,319.39c-.8,8.01-1.12,15.89-2.46,23.59-3.73,21.57-11.35,28.55-33.16,31.99-12.65,2-25.22,4.5-39.48,7.08-3.09-13.34,2.14-24.65,9.59-35.09,6.34-8.89,16.59-11.77,26.48-14.68,5.57-1.64,11.45-2.27,16.94-4.1,6.96-2.32,13.67-5.39,22.09-8.79Zm-22.56,26.14c-16.69-3.19-30.29,3.91-33.73,17.6,19.52,4.63,33.66-2.35,33.73-17.6Z"/>
      <path class="cls-1" d="m622.94,381.59c-17.27-2.5-31.75-4.62-46.25-6.68-10.64-1.51-18.42-7.08-22.45-16.95-4.72-11.54-8.67-23.38-5.85-35.47,14.8,3.98,29.12,7.63,43.31,11.71,17.63,5.06,28.02,16.93,31.13,34.93.71,4.1.1,8.42.1,12.45Zm-15.6-15.67c-9.07-17.3-22.18-23.79-37.97-19.79,3.88,22.24,22.21,17.36,37.97,19.79Z"/>
      <path class="cls-1" d="m612.38,317.02c-2.29-3.54-4.16-6.44-6.37-9.86,1.96-.38,3.3-1.06,4.38-.77,8.15,2.17,14.64,6.52,18.11,14.56,2.32,5.37,2.92,11.15-2.46,14.38-3.28,1.97-8.81,2.71-12.27,1.34-6.01-2.38-6-8.15-3.71-13.73.67-1.64,1.29-3.3,2.31-5.92Z"/>
      <path class="cls-1" d="m662.4,317.01c1.55,3.87,2.87,7.14,4.76,11.84-2.22,2.57-4.18,6.75-7.27,7.88-3.18,1.17-8.73.66-10.92-1.49-2.67-2.62-4.84-8.26-3.87-11.62,2.9-10.06,10.19-16.08,22.66-17.75-2.11,4.39-3.55,7.37-5.36,11.14Z"/>
      <path class="cls-1" d="m654.3,401.03c-5.78,4.24-10.38,7.61-15.9,11.66-5.47-3.26-11.01-6.57-16.81-10.02,9.57-9.38,17.45-9.82,32.71-1.64Z"/>
    </g>
  </g>
</svg>