<?xml version="1.0" encoding="UTF-8"?>
<svg id="Camada_2" data-name="Camada 2" xmlns="http://www.w3.org/2000/svg" width="1500" height="703.66" viewBox="0 0 1500 703.66">
  <defs>
    <style>
      .cls-1 {
        stroke-width: 0px;
      }
    </style>
  </defs>
  <g id="logos">
    <g id="maah">
      <path class="cls-1" d="m401.57,372.98c-35.82,9.95-35.96,39.18-36.48,66.58-1.19,62.59-.98,125.21-.84,187.81.02,10.92,1.96,21.92,3.9,32.72,3.06,17,13.54,28.23,29.27,36.61h-129.31c31.84-16.55,31.73-45.41,31.59-74.39-.31-63.61-.46-127.22-.81-190.83-.03-5.12-1.03-10.23-1.58-15.34-1.58-.44-3.16-.87-4.74-1.31-3.11,5.57-6.82,10.9-9.23,16.76-34.49,83.74-68.72,167.59-103.36,251.27-2.29,5.52-7.41,9.86-11.22,14.75-4.32-4.93-10.3-9.17-12.7-14.91-32.64-78.01-64.75-156.24-97.1-234.38-1.97-4.77-4.8-9.19-10.95-13.46-.96,3.36-2.74,6.72-2.75,10.08-.11,64.59-.64,129.19.31,193.77.49,33.53,5.02,39.34,34.61,57.65H3.61c-1.2-1.08-2.41-2.15-3.61-3.23,22.86-4.2,30.42-19.98,33.17-38.29,1.85-12.3,1.79-24.96,1.79-37.45-.04-59.1-.03-118.21-.82-177.3-.18-13.36-1.32-27.53-6.09-39.73-3.55-9.07-13.67-15.59-20.92-23.19-2.18-2.28-4.55-4.37-6.84-6.54,3.16-1.78,6.29-5.05,9.48-5.09,23.03-.33,46.07-.17,69.11.17,13.7.2,21.56,7.82,26.58,20.37,27.29,68.32,54.99,136.48,82.59,204.67,2.2,5.44,4.69,10.77,8.57,19.63,4.23-6.4,7.36-9.78,8.96-13.77,28.24-70.09,56.61-140.14,84.15-210.51,5.72-14.61,13.61-21.89,29.88-21.16,21.5.97,43.07.06,64.6.4,5.42.08,10.81,1.85,16.22,2.84.39,1.6.77,3.19,1.16,4.79Z"/>
      <path class="cls-1" d="m130.65,333.18c4.28-1.69,9.88-2.22,12.57-5.3,6.67-7.61,14.96-15.66,17.25-24.86,3.92-15.82,5-32.65,5.11-49.07.36-55.07-.06-110.15-.61-165.22-.12-11.95-1.43-23.97-3.2-35.81-2.58-17.21-9-31.92-28.44-36.29-1.57-.35-2.76-2.42-7.11-6.47,7.79-1.94,12.9-4.31,18.02-4.32,49.07-.08,98.16-.67,147.2.63,82.04,2.17,144.43,63.46,149.4,145.48,2.49,41.11-1.63,81.02-22.68,117.66-25.85,44.98-65.06,68.85-116.5,70.19-53.04,1.38-106.14.38-159.22.28-3.69,0-7.38-1.26-11.07-1.94-.24-1.65-.48-3.31-.72-4.96Zm101.55-177.86c-.12,0-.25,0-.37,0,0,37.51-.68,75.04.37,112.53.37,13.19,3.77,26.68,8.04,39.27,4.21,12.43,14.02,20.75,27.62,22.66,37.6,5.28,62.38-6.75,77.63-41.69,28.04-64.25,31.85-131.05,11.23-197.84-15.51-50.26-51.19-73.62-102.72-72.79-18.19.29-21.69,3.7-21.75,22.32-.12,38.51-.04,77.03-.04,115.54Z"/>
      <path class="cls-1" d="m1049.92,698.24h-138.73c2.9-4.28,3.99-7.88,5.89-8.38,19.49-5.11,24.34-20.83,27.22-37.53,1.61-9.31,2.11-18.92,2.08-28.4-.13-50.07-.29-100.14-1.14-150.19-.19-11.35-2.6-22.77-5-33.94-2.56-11.92-8.94-20.97-21.82-24.26-2.66-.68-4.6-4.21-6.86-6.42,2.56-1.97,4.89-5.18,7.73-5.72,32.3-6.13,58.09-23.26,80.55-46.42,2.18-2.25,5.7-3.19,8.6-4.74,1.61,3.81,4.58,7.6,4.63,11.42.44,34.54.16,69.09.54,103.64.21,19.1,2.09,19.88,18.27,10.32,22.25-13.14,45.63-23.02,72.01-23.28,35.37-.35,60.84,19.66,66.59,54.54,2.9,17.62,2.32,35.86,2.88,53.83.92,29.49.75,59.04,2.47,88.48,1.04,17.72,7.27,33.48,27.24,38.78,1.29.34,2.44,1.67,3.34,2.79.55.68.51,1.84,1.21,4.81h-136.44c2.72-3.77,3.72-6.78,5.37-7.2,20.05-5.08,27.25-20.76,27.82-38.36,1.38-41.99,1.83-84.08.44-126.06-.77-23.18-23.09-41.24-45.9-41.36-21.26-.11-42.67,16.63-43.69,39.82-1.87,42.92-1.32,86.03.39,128.97.64,15.99,7.73,31.36,26.43,36.44,1.9.52,3.19,3.27,7.87,8.39Z"/>
      <path class="cls-1" d="m987.55,312.31c-4.59,2.39-7.93,4.96-11.69,5.96-24.64,6.57-49.46,12.48-74.04,19.29-11.51,3.19-16.48,1.05-16.71-12.06-.33-19.01-4.18-20.46-20.2-9.78-20.89,13.93-43.65,22.05-68.97,22.4-41.34.57-66.84-22.37-70.31-63.77-.92-10.96-.85-22.01-1.11-33.02-.19-8.01.36-16.07-.39-24.02-2.46-26.32-1.5-54.69-39.92-64.29,7.18-4.2,10.31-7.3,13.86-7.91,29.92-5.1,53.28-21.83,75.3-41.25,4.18-3.68,9.19-6.42,13.81-9.59,1.52,5.93,4.33,11.85,4.36,17.79.27,48.57.15,97.14-.13,145.71-.12,20.97,7.94,36.8,27,46.44,26.56,13.43,59.53.23,62.69-29.14,3.26-30.37.26-61.61-2.08-92.31-.92-12.03-8.96-22.07-22.54-25.47-2.52-.63-4.23-4.45-6.32-6.8,2.67-1.83,5.13-4.79,8.04-5.31,30.29-5.43,54.48-21.59,76.4-42.15,3.7-3.47,8.52-5.76,12.82-8.59,1.5,5.47,4.25,10.93,4.29,16.41.27,41.56,0,83.12-.1,124.68,0,2.5-.06,5.01-.07,7.51-.01,38.85,4.2,47.28,36.02,69.27Z"/>
      <path class="cls-1" d="m652.81,667.3c-10,36.96-69.73,46.55-93.89,15.92-10.19-12.91-16.08-12.7-28.17-2.65-23.86,19.82-52.27,26.51-83.11,21.51-20.37-3.3-36.19-13.74-42.54-33.56-7.16-22.35-6.94-45.18,10.59-63.41,8.12-8.45,18.41-15.59,28.96-20.78,22-10.8,44.97-19.6,67.29-29.78,38.55-17.57,34.08-50.99,15.76-77.4-8.98-12.96-23-15.5-37.73-11.08-14.58,4.37-19.93,15.87-20.47,29.98-.42,11,.64,22.09-.34,33.02-1.63,18.32-14.25,29.17-30.83,27.8-15.77-1.31-25.55-13.43-24.96-31.62.84-25.9,13.82-45.1,35.84-57.03,36.93-20.02,75.9-21.55,114.53-5.72,29.81,12.21,44.45,36.99,45.8,68.46,1.29,29.99-.08,60.09.46,90.14.21,11.9.87,24.21,4.11,35.54,5,17.5,12.21,19.65,28.9,12.08,2.4-1.09,5.41-.83,9.78-1.41Zm-111.62-116.77c-19.8,14.05-37.34,25.99-54.32,38.69-16.73,12.51-22.05,30.12-20.29,50.33,1.77,20.26,18.05,36.01,38.35,37.15,17.26.97,34.1-11.24,35.66-31.48,2.31-30.06.6-60.42.6-94.7Z"/>
      <path class="cls-1" d="m1499.65,131.92c-1.05-3.13-3.73-4.99-6.94-4.9-3.19.09-5.98,2.13-6.76,5.29-.39,1.47-.27,3.07-.36,4.63.06.27.09.51.15.78-7.75,1.71-15.48,3.79-23.29,5.02-3.64.57-7.6-.03-11.18-.9-5.5-1.35-8.29-5.8-7.84-11.51.15-2.1.39-4.42,1.35-6.25,2.91-5.41,5.74-10.97,9.47-15.81,4.45-5.83,9.77-10.97,14.63-16.32,5.83,3.82,10.4,3.64,14.06-.21,3.16-3.28,3.55-8.35.9-12.08-2.55-3.67-7.57-4.96-11.57-3.01-4.9,2.43-6.31,6.76-4.48,14.03-10.61,6.4-21.37,12.56-33.54,15.45-4.27.99-8.84,1.41-13.16,1.05-7.57-.6-11.75-5.17-12.5-12.77-.27-2.67-.57-5.5,0-8.08,1.98-9.11,4.06-18.18,6.64-27.14,1.83-6.34,4.48-12.44,6.76-18.57,7.63,1.32,12.5-.69,14.7-5.86,2.16-5.05.75-10.49-3.43-13.43-4.39-3.07-10.1-2.85-13.73.96-1.59,1.68-2.79,4.03-3.4,6.25-1.05,4,.69,7.42,3.4,10.4-10.64,11.36-21.01,22.69-33.96,31.1-2.79,1.8-5.86,3.28-8.99,4.42-6.97,2.52-12.47.6-16.62-5.53-1.05-1.59-2.25-3.31-2.64-5.14-1.38-6.49-3.13-13.01-3.52-19.62-.51-8.29.18-16.65.36-24.91,7-.75,10.67-3.91,11.12-9.05.42-4.48-2.49-8.68-6.82-9.89-4.15-1.17-9.02.96-10.94,4.78-2.55,5.05-1.02,9.26,5.11,13.82-3.52,10.64-7.18,21.25-13.85,30.47-2.07,2.95-4.66,5.65-7.48,7.87-5.98,4.72-12.44,3.73-17.01-2.19-.96-1.23-1.86-2.55-2.55-3.97-4.33-8.74-5.68-18.3-6.64-27.95.72-.27,1.23-.42,1.74-.63,3.43-1.41,5.29-4.51,4.81-7.99-.48-3.37-3.43-6.01-6.82-6.1-3.34-.12-6.37,2.13-7.3,5.44-.96,3.28.54,6.91,3.85,8.29,1.92.78,2.25,2.01,2.43,3.79,2.19,23.44.96,46.58-5.74,69.57-.21.06-.42.09-.63.15-11.09,2.76-22.45,5.71-32.61,10.76-24.55,12.2-39.76,31.61-40.54,60.13-.48,17.85,8.62,29.21,24.01,30.59,17.7,1.59,29.45-7.63,31.55-26.45,1.23-10.85-.09-21.97.36-32.94.54-13.97,5.53-25.9,19.8-30.59,5.05-1.65,10.01-2.37,14.76-2.1,6.94.42,13.46,3.01,19.35,7.99,1.08.9,2.13,1.89,3.16,2.95,24.31,25.06,18.78,62.75-12.26,78.04-19.26,9.5-39.79,16.53-58.96,26.17-13.64,6.88-27.68,14.54-38.62,24.94-18.24,17.31-18.84,40.48-11.93,63.02,6.1,19.8,21.52,31.7,41.74,34.53,33.09,4.6,63.95-1.86,89.34-25.18,7.93-7.27,11.72-5.32,19.41,1.44,10.79,9.5,23.68,18.69,37.23,22.48,25.21,7.03,55.23-10.88,59.41-33.78-3.31.33-5.41,0-7,.75-18.63,8.99-26.96,5.56-32-14.73-2.13-8.62-2.58-17.82-2.67-26.78-.24-26.02.54-52.05.03-78.07-.06-3.82-.21-7.63-.51-11.48,18.09-17.1,39.34-29.09,62.51-37.74,2.1-.78,3.73-1.29,5.74.54,2.31,2.16,5.95,1.77,8.44-.21,2.4-1.89,3.4-5.23,2.46-8.05Zm-149.38,159.3c-1.86,16.89-17.91,26.57-33.75,26.08-17.82-.51-33.63-12.14-37.62-28.91-5.08-21.4-1.59-41.32,16.17-55.68,17.34-14.03,36-26.41,54.06-39.52,2.01.63,4,1.26,6.01,1.92-1.41,32.03-1.32,64.28-4.87,96.1Z"/>
      <path class="cls-1" d="m913.98,668.65c-6.13,16.26-17.32,23.34-29.74,28.07-22.83,8.69-50,1.65-65.1-17.76-8.58-11.02-14.35-9.67-24.07-1.55-25.21,21.06-54.69,28.57-87.06,22.41-39.6-7.53-58.53-55.98-33.61-88.3,8.2-10.64,20.27-19.45,32.33-25.71,22.6-11.73,46.77-20.39,69.76-31.42,34.87-16.73,33.62-46.82,15.77-75.84-8.49-13.81-24.65-18.25-39.72-13.71-13.72,4.14-22.18,16.63-22.62,33.7-.29,11.48.51,23.05-.73,34.41-1.52,13.96-13.23,23.23-26.94,23.06-13.34-.16-24.15-10.54-25.16-24.89-1.78-25.26,8.21-45.58,29.4-58.64,40.67-25.06,83.69-26.37,126-5.3,26.39,13.15,37.98,37.6,38.23,66.88.25,30.04-.18,60.09-.21,90.13,0,6,.07,12.04.74,18,3.27,29.04,12.97,35.72,42.72,26.46Zm-109.35-120.21c-21.2,15-39.22,27.13-56.54,40.17-16.06,12.09-21.88,28.92-20.31,48.84,1.82,23.1,16.27,38.93,38.03,40.75,18.18,1.52,35.84-10.36,38.06-32.6,3.03-30.36.76-61.24.76-97.17Z"/>
      <path class="cls-1" d="m1105.6,343.56c-41.41-.62-74.92-5.34-98.39-33.32-7.89-9.4-12.17-23.97-13.06-36.53-1.08-15.21,10.23-24.19,24.53-24.7,13.81-.49,24.62,8.22,27.61,22.51,1.84,8.8,2.84,17.81,5.12,26.49,9.84,37.38,56.67,51.25,83.45,24.89,13.45-13.24,15.1-29.28,1.77-42.43-9.78-9.65-21.8-17.43-33.79-24.35-20.36-11.74-41.68-21.8-62.25-33.19-26.75-14.82-42.16-36.68-38.98-68.52,3.15-31.45,23.29-49.31,51.28-58.36,35.86-11.59,71.36-8.77,104.62,9.64,18.19,10.07,29.57,25.51,28.8,47.45-.51,14.6-9.12,23.82-22.71,25.44-14.42,1.72-25.93-5.51-29.43-19.59-2.41-9.68-3.46-19.7-5.12-29.57-2.89-17.15-14.14-26.99-33.3-29.12-17.99-2-37.04,8.29-43.4,23.44-5.67,13.51-1.15,28.94,13.31,39.5,9.2,6.72,19.91,11.36,29.83,17.12,23.72,13.78,49.08,25.46,70.68,42.01,37.27,28.56,33,80.32-6.02,106.78-18.97,12.86-39.69,15.55-54.56,14.41Z"/>
      <path class="cls-1" d="m681.61,286.74c-4.16,6.16-7.56,13.04-12.61,18.36-38.51,40.62-87.34,48.29-139.7,22.39-45.86-22.69-70.6-73.57-62.14-127.23,7.17-45.44,27.3-82.03,72.09-99.37,36.26-14.04,72.65-13.57,106.63,8.12,19.96,12.74,32.36,30.89,29.64,55.1-2.85,25.33-20.48,39.22-43.71,46.18-16.29,4.88-33.15,7.91-49.28,13.2-15.8,5.19-32.88,11.8-36.07,30.35-3.28,19.04,12.34,29.74,25.21,39.7,27.68,21.45,71.28,19.36,97.39-3.4,2.73-2.38,5.9-4.27,8.86-6.39l3.69,2.99Zm-95.9-184.03c-5.29,2.42-16.6,5.65-25.62,12.09-27.06,19.34-42.09,87.33-26.21,116.47,1.28,2.36,8.88,4.12,11.23,2.59,17.06-11.09,33.62-22.97,50.16-34.85,17.68-12.7,30.49-28.9,33.97-51,3.95-25.06-13.21-45.57-43.53-45.3Z"/>
      <path class="cls-1" d="m1334.13,113.07c-4.54-2.13-9.17-4.15-13.85-5.98-1.83-.72-3.64-1.38-5.5-2.01,6.94.42,13.46,3.01,19.35,7.99Z"/>
    </g>
  </g>
</svg>