<?xml version="1.0" encoding="UTF-8"?>
<svg id="Camada_2" data-name="Camada 2" xmlns="http://www.w3.org/2000/svg" width="1500" height="591.68" viewBox="0 0 1500 591.68">
  <defs>
    <style>
      .cls-1 {
        stroke-width: 0px;
      }
    </style>
  </defs>
  <g id="logos">
    <g id="jesse">
      <path class="cls-1" d="m1355.34,308.88c0,25.24.2,43.49-.06,61.73-.21,14.98,2.56,28.28,17.01,36.31,1.09.61,1.7,2.08,2.53,3.15-1.35.45-2.69,1.28-4.04,1.29-22.3.27-44.59.47-66.89.53-1.11,0-2.23-1.31-3.34-2.01.58-.76.99-1.84,1.76-2.24,17.98-9.28,19.02-25.52,18.6-43.01-.62-25.84-.07-51.7-.4-77.55-.34-27.06-4.11-53.51-16.45-78.03-2.7-5.36-5.98-10.67-10.02-15.08-12.16-13.27-27.67-12.77-39.12,1.34-12.45,15.33-19.14,33.6-21.5,52.77-2.65,21.54-3.24,43.38-3.95,65.11-.62,19.24.08,38.52-.28,57.78-.28,15.19,3.12,28.17,17.73,35.86,1.22.64,2.04,2.04,3.04,3.08-1.58.85-3.15,2.42-4.73,2.43-21.8.13-43.6.09-65.39-.1-1.67-.01-3.34-1.48-5-2.26,1.23-1.38,2.2-3.21,3.72-4.08,12.56-7.23,15.95-18.91,15.92-32.26-.09-50.69-.34-101.37-.26-152.06.03-16.75-.87-32.72-18.22-41.8-.93-.49-1.16-2.34-1.71-3.56.91-.4,1.81-1.15,2.72-1.14,15.2,0,30.4,0,45.6.26,5.26.09,6.52,4.13,6.63,8.49.2,7.6.16,15.2.36,22.8.04,1.41.71,2.8,1.1,4.2,1.09-.93,2.48-1.67,3.23-2.82,3.85-5.91,6.95-12.42,11.41-17.82,12.6-15.24,27.8-18.95,46.28-11.99,15.78,5.94,27.63,17.01,36.77,30.64,6.14,9.15,10.48,19.49,15.69,29.27,1.15,2.16,2.6,4.16,3.9,6.23.98-2.03,2.15-3.99,2.91-6.1,4.43-12.32,7.52-25.3,13.38-36.89,14.08-27.88,40.53-34.46,66.02-16.87,24.94,17.21,38.79,42.13,46.45,70.82,8.37,31.35,5,63.43,5.46,95.26.11,7.6.33,15.24-.23,22.8-1.02,13.81,3.24,24.85,15.07,32.65,1.35.89,2.01,2.84,2.99,4.3-1.43.34-2.86.95-4.31.99-28.75.89-48.52-2.29-47.45-43.82.63-24.31.14-48.66-.25-72.99-.42-25.95-3.06-51.68-13.34-75.81-3.9-9.16-9.02-18.27-15.48-25.78-10.41-12.09-24.7-11.69-35.86-.2-3.48,3.58-6.5,7.87-8.77,12.33-9.48,18.59-16.51,37.93-17.16,59.17-.52,17.21-1.57,34.41-2.06,44.65Z"/>
      <path class="cls-1" d="m587.98,171.06c-3.69,3.4-8.99,5.05-13.55,7.51,2.94-4.1,5.25-8.89,8.89-12.21,74.68-68.27,160.41-116.51,258.91-140.82,49.2-12.14,99.03-16.14,149.04-4.56,11.3,2.61,22.3,6.71,33.25,10.6,10.95,3.88,16.07,1.96,19.25-8.98,1.83-6.28,2.54-12.9,3.86-19.35.23-1.13.93-2.16,1.42-3.25.17.99.36,1.97.49,2.96.07.49.01,1.01.06,1.52,2.76,27.59,6.5,31.83,33.7,38.64,1.66.41,3.05,1.92,4.56,2.92-1.8.66-3.55,1.48-5.4,1.95-2.45.6-5.04.67-7.45,1.39-9.72,2.89-10.52,5.53-2.96,12.88,20.63,20.02,33.42,44.43,40.32,71.95,2.06,8.22,1.78,17.04,2.34,25.6.08,1.14-1.23,2.38-1.9,3.57-.73-1.23-1.81-2.37-2.12-3.71-3.76-15.71-6.28-31.83-11.37-47.09-6.15-18.47-17.7-34.06-32.18-47.16-7.15-6.46-11.58-5.55-14.38,3.51-2.06,6.62-1.92,13.92-2.85,20.9-.18,1.37-.82,2.67-1.24,3.99-.46-1.38-1.07-2.74-1.36-4.16-.61-2.97-1.29-5.96-1.52-8.98-1.52-19.45-11.57-30.71-31.22-32.99-1.46-.17-2.85-.83-4.28-1.25,1.45-1.04,2.79-2.3,4.37-3.04,1.34-.63,3.12-.33,4.41-1.01,1.57-.84,2.82-2.29,4.21-3.46-1.46-1.23-2.75-2.88-4.43-3.6-4.18-1.78-8.49-3.29-12.83-4.67-24.87-7.93-50.41-11.15-76.49-10.46-66.11.54-128.06,17.92-187.18,46.62-56.43,27.38-108.07,61.82-154.37,104.24Z"/>
      <path class="cls-1" d="m1155.33,411.19c-1.36.47-2.72,1.36-4.09,1.36-14.19-.01-28.37-.16-42.57-.29-6.26-.06-9.13-3.36-9.19-9.51-.06-6.6-.14-13.18-.49-19.76-.09-1.69-1.27-3.33-1.95-4.98-1.29,1.4-2.66,2.75-3.84,4.24-.61.78-.82,1.85-1.31,2.73-16.53,29.28-39.13,35.06-67.14,17.17-10.39-6.64-10.57-6.8-19.43,2.81-31.06,33.68-66.08,62.76-103.49,89.01-64.68,45.39-135.18,77.96-213.27,91.55-50.26,8.74-100.9,10.06-149.92-8.38-9.9-3.73-19.42-8.71-28.59-14.01-8.74-5.03-16.4-10.38-27.79-9.69-12.06.74-19.03-10.23-18.27-22.87.3-5.13-.28-11.26-2.84-15.48-22.83-37.65-25.73-78.18-18.44-120.32,1.2-6.96,2.8-13.89,4.6-20.74.55-2.06,2.42-3.78,3.68-5.64.55,2.59,1.89,5.31,1.48,7.74-.82,4.96-3.08,9.69-3.89,14.66-5.33,32.83-7.01,65.52,5.69,97.29,2.44,6.09,5.42,11.95,8.06,17.95,3.57,8.15,7.64,12.49,18.47,9.98,14.14-3.28,24.97,8.36,21.4,22.99-2.43,9.95,1.65,13.7,8.61,17.83,26.69,15.85,55.8,23.78,86.47,26.27,69.94,5.7,135.9-10.42,199.42-38.09,74.2-32.33,140.12-76.95,196.67-135.06,5.29-5.43,13.13-10.98,14.04-17.3.82-5.65-6.05-12.62-10-18.69-16.15-24.86-24.07-52.07-23.98-81.69.07-25.35-.52-50.7.2-76.02.44-15.62-4.02-27.79-17.91-35.83-1.4-.82-2.15-2.77-3.21-4.21,1.38-.44,2.76-1.27,4.14-1.27,22.8-.08,45.62-.08,68.43.01,1.32,0,2.66.92,3.98,1.42-.7,1.14-1.13,2.79-2.14,3.35-16.07,8.76-19.34,23.19-19.02,39.99.52,26.85-.37,53.73.39,80.58.62,22.27,2.76,44.51,11.79,65.37,3.41,7.86,5.1,8.62,9.75,1.75,16.41-24.24,32.45-48.77,47.74-73.73,6.03-9.85,9.69-21.13,14.57-31.7.43-.93,1.9-1.37,2.89-2.04.32.93,1.07,1.96.87,2.77-1.05,4.39-1.88,8.9-3.6,13.03-13.94,33.42-33.5,63.46-55.31,92.18-3.52,4.65-9.74,11.99-8.3,14.76,3.72,7.16,10.28,13.53,17.08,18.23,8.29,5.72,16.59,1.54,23.56-4.29,10.92-9.15,15.6-22.04,20.51-34.83,10.27-26.71,9.37-54.6,9.23-82.43-.02-4.56,0-9.13.01-13.69.01-17.23-.44-34.47.15-51.68.48-14.34-3.45-25.81-16.48-33.19-1.46-.83-2.31-2.75-3.44-4.17,1.82-.56,3.61-1.61,5.43-1.62,22.3-.22,44.6-.3,66.9-.33,1.43-.01,2.85.62,4.28.97-.9,1.44-1.44,3.55-2.74,4.24-14.49,7.7-18.04,20.4-17.96,35.72.3,50.67.23,101.36-.08,152.03-.1,16.45,1.25,31.63,18.41,39.94.96.46,1.19,2.39,1.75,3.65Z"/>
      <path class="cls-1" d="m67.11,39.44c13.67,0,27.35-.07,41.02.1,1.68.02,3.35,1.35,5.02,2.07-.74,1.2-1.18,2.94-2.26,3.51-12.49,6.66-19.85,17.12-22.42,30.8-2.87,15.27-1.34,29.88,5.72,44.22,5.57,11.32,12.77,18.58,25.83,20.16,11.02,1.33,21.89,4.07,32.74,6.54,2.66.61,4.99,2.62,7.47,3.99-1.75,1.73-3.29,3.75-5.27,5.16-17.76,12.58-35.24,25.63-53.55,37.36-11.21,7.18-14.64,16-14.51,29.02.47,46.08-.37,92.16-.49,138.25-.06,25.45-11.07,44.52-32.13,58.43-14.89,9.83-31.47,10.09-48.28,9.63-1.04-.03-2.05-1.33-3.07-2.05,1.22-.83,2.34-1.86,3.66-2.46,15.34-6.99,27.39-17.49,33.59-33.4,2.88-7.4,5.56-15.44,5.73-23.25.62-27.33.18-54.69-.06-82.03-.02-2.68-1.45-5.34-2.22-8.01-1.8,1.58-3.58,3.19-5.41,4.74-1.68,1.42-3.42,2.78-5.13,4.17-.34-1.97-.87-3.92-.99-5.9-1.06-18.68-2.45-37.35-2.88-56.04-.23-9.7-4.49-15.66-12.14-21.12-20.78-14.84-24.54-11.66-.42-29.52,9.33-6.91,21.99-12.44,26.56-21.8,4.86-9.94,2.08-23.68,2.33-35.77.22-10.63-.1-21.27.06-31.9.26-16.61-6.5-29.25-20.65-38.01-1.98-1.23-3.54-3.15-5.29-4.75,2.64-.74,5.27-2.09,7.92-2.13,13.16-.22,26.34-.1,39.5-.1,0,.03,0,.06,0,.1Zm18.96,124.32c1.23,6.17,2.47,12.34,3.7,18.51,5.68-2.93,11.36-5.86,17.04-8.8.45-.23.92-.46,1.27-.81,5.13-5,10.23-10.02,15.34-15.04-6.49-2.24-12.86-5-19.51-6.6-16.57-3.99-16.62-3.78-17.85,12.74Zm-40.36,30.27h-.03c0-2.01.13-4.03-.02-6.03-.46-5.9-1.04-11.79-1.57-17.69-5.63,2.71-11.67,4.83-16.81,8.28-8.2,5.51-8.27,7.8-.13,12.71,8.16,4.92,14.7,10.4,15.49,20.63.1,1.33,1.1,2.59,1.69,3.89.46-1.24,1.3-2.47,1.33-3.72.14-6.02.06-12.05.06-18.08Z"/>
      <path class="cls-1" d="m592.49,382.03c-16.54,19.23-38.05,29.93-64.3,29.13-27.82-1.09-51.64-9.97-66.31-35.45-12.74-22.12-6.87-41.32,15.84-53.12,3.57-1.86,7.39-3.45,11.28-4.36,1.13-.26,4.29,2.46,4.16,3.46-.59,3.96-2.15,7.76-3.28,11.65-4.72,16.18-4.04,32.17,3.49,47.26,7.67,15.34,20.63,23.82,37.88,23.29,17.98-.54,32.25-8.1,39.44-25.78,9.35-23,3.12-48.85-17-64.07-15.71-11.89-32.71-22.1-49.01-33.23-5.57-3.8-8.69-2.65-11.68,3.36-4.95,9.95-10.56,19.58-16.22,29.15-1.11,1.88-3.69,2.88-5.61,4.28-.07-2.3-.97-5.04-.05-6.85,4.34-8.55,9.2-16.85,13.84-25.25q6.57-11.87-3.79-20.68c-11.61-9.85-20.09-21-19.43-37.53.37-9.11,3.07-16.81,8.38-23.84,25.42-33.72,85.39-38.16,115.73-8.6,6.95,6.77,11.1,14.54,8.22,24.51-2.14,7.42-17.69,19.19-25.73,19.2-1.5,0-4.1-2.59-4.28-4.21-.71-6-.06-12.18-.94-18.14-2.66-17.82-14.54-30.46-29.61-32.23-15.13-1.77-29.97,7.76-36.97,23.7-4.74,10.82.86,27.04,11.04,33.05,4.31,2.53,6.39.32,8.82-2.58,8.44-10.08,16.93-20.12,25.5-30.1,1.97-2.29,4.24-4.34,6.54-6.3.59-.49,2.47-.55,2.68-.2.66,1.17,1.55,3.13,1.05,3.87-2.58,3.73-5.57,7.17-8.44,10.69-6.71,8.23-13.08,16.77-20.26,24.56-5.51,5.97-3.53,9.13,2.34,12.82,11.99,7.56,24.08,15.04,35.42,23.52,11.29,8.45,23.09,16.87,32.26,27.41,23.86,27.42,20.72,52.36-.98,77.62Z"/>
      <path class="cls-1" d="m359.31,175.12c28.79.06,47.71,6.01,62.53,21.73,6.01,6.38,11.4,13.95,6.54,23.17-5.49,10.41-15.24,15.95-26.36,18.83-.64.17-3.66-4.26-3.51-6.4.86-12.06-1.69-22.96-8.11-33.31-6.87-11.08-16.41-16.19-29.22-15.01-14.63,1.35-24.52,10.16-29.98,22.78-5.1,11.77-1.79,23.48,8.18,31.54,10.58,8.57,22.39,15.61,33.55,23.47,15.31,10.78,30.96,21.15,45.62,32.75,11.64,9.22,19.99,21.12,23.73,36.15,3,12.06,1.76,23.63-3.8,33.95-32.22,59.8-105.51,57.61-136.87,19.47-20.64-25.1-16.14-52.47,18.8-65.43,2.08-.77,4.72-.05,7.1-.03-.2,2.36.22,5-.7,7.04-8.46,18.72-8.82,37,1.41,55.34,9.81,17.6,26.7,25.94,45.74,21.81,19.98-4.33,32.52-19.21,34.36-39.13,2.18-23.63-6.93-41.31-26.34-54.23-19.39-12.91-39.06-25.43-58.02-38.95-8.1-5.78-15.6-12.96-21.77-20.78-9.87-12.51-9.58-29.38-.53-42.45,15.76-22.76,38.47-31.73,57.62-32.34Z"/>
      <path class="cls-1" d="m837.7,242.96c0,41.54.17,83.08-.08,124.62-.1,16.41,1.39,31.61,18.45,39.95.89.43,1.04,2.37,1.53,3.61-1.41.43-2.82,1.22-4.23,1.25-11.65.18-23.3.25-34.96.28-10.13.03-20.27.05-30.4-.14-1.82-.03-3.61-1.14-5.42-1.75.96-1.48,1.57-3.56,2.93-4.33,13.69-7.85,16.86-20.71,16.89-35.03.18-78.52.33-157.04.47-235.57.02-13.39-4-24.86-15.62-32.8-1.45-.99-2.23-2.97-3.32-4.49,1.88-.45,3.76-1.29,5.64-1.3,11.65-.11,23.31-.27,34.96.04,11.96.32,12.62.91,12.71,13.45.3,41.54.34,83.08.49,124.62,0,2.53,0,5.07,0,7.6h-.05Z"/>
      <path class="cls-1" d="m932.31,242.94c0,42.54.15,85.09-.09,127.63-.08,15.15,3.47,28.03,17.51,36.19,1.27.74,1.72,2.86,2.56,4.34-1.41.4-2.82,1.15-4.23,1.14-21.26-.16-42.53-.42-63.79-.66-.51,0-1.12.21-1.5,0-1.17-.66-2.26-1.47-3.38-2.23.54-.76.91-1.8,1.64-2.23,16.73-9.77,17.07-25.81,17.01-42.5-.24-74.45-.24-148.9-.06-223.35.04-15.27-1.35-29.44-16.01-38.41-1.04-.64-2.11-2.48-1.91-3.52.17-.89,2.14-2.04,3.32-2.05,13.67-.13,27.34-.12,41.01-.04,4.81.03,7.53,2.52,7.69,7.43.14,4.05.22,8.1.22,12.15.02,42.04,0,84.07,0,126.11Z"/>
      <path class="cls-1" d="m726.54,411.46c-2.53,0-5.07-.16-7.59.02-44.15,3.3-72.69-20.42-90.16-57-22.07-46.21-20.63-93.35,6.9-137.64,25.04-40.28,75.22-53.79,117.4-32.01,7.62,3.94,14.67,11.02,19.25,18.36,6.82,10.93,2.55,23.29-8.57,30.06-4.72,2.87-10.03,4.8-15.18,6.9-29.19,11.88-57.15,25.86-82.07,45.53-13.68,10.79-19.18,23.8-15.88,41.25,3.24,17.14,8.39,33.34,17.77,48.06,14.96,23.48,40.1,33.5,67.08,27.01,9.67-2.33,17.93-6.77,23.88-15,.82-1.14,2.06-1.99,3.11-2.97.64,1.68,1.39,3.32,1.87,5.05.26.94.06,2.01.1,3.03.68,20.3.53,20.41-19.66,19.87-6.07-.16-12.15-.03-18.23-.03,0-.16,0-.33,0-.49Zm-77.82-133.23c.38,1.43,1.11,4.18,1.83,6.92,1.79-.72,3.99-1,5.31-2.22,19.92-18.36,43.43-30.94,67.42-42.95,14.94-7.48,18.93-19.81,13.47-37.09-4.1-12.96-17.62-21.08-32.35-19.13-14.49,1.92-25.03,10.07-33.04,21.85-14.59,21.47-21.04,45.53-22.65,72.63Z"/>
      <path class="cls-1" d="m240.08,410.35c-1.01,0-2.03.01-3.04,0-52.74-.63-86.88-25.4-101.62-75.93-11.51-39.47-8.93-78.41,12.49-114.36,28.13-47.21,73.64-52.46,114.54-38.03,9.14,3.22,17.33,8.27,22.47,17.14,8.64,14.89,4.54,29.27-11.12,36.53-14.68,6.81-30.12,12.13-44.37,19.71-16.02,8.52-31.33,18.47-46.51,28.47-17.21,11.33-22.93,27.57-17.9,47.5,3.84,15.21,7.96,30.37,16.79,43.62,14.44,21.67,34.24,32.41,60.72,29.02,10.81-1.38,20.61-4.96,28.55-12.83,1.58-1.57,3.72-2.58,5.6-3.85.43,2.45,1.15,4.88,1.23,7.34.44,14.13-1.15,15.81-15.06,15.98-7.59.1-15.19.02-22.78.02v-.33Zm-77.57-132.42c.17,1.03.72,4.41,1.28,7.79,2.97-1.54,6.43-2.54,8.84-4.71,18.95-17.09,41.05-28.98,63.77-40.13,16.03-7.86,20.23-20.68,14-37.93-5.41-14.99-18.48-21.76-35.08-18.34-15.56,3.2-25.85,13.33-33.41,26.3-11.6,19.89-17.49,41.65-19.39,67.02Z"/>
    </g>
  </g>
</svg>