<?xml version="1.0" encoding="UTF-8"?>
<svg id="Camada_2" data-name="Camada 2" xmlns="http://www.w3.org/2000/svg" width="1500" height="617.31" viewBox="0 0 1500 617.31">
  <defs>
    <style>
      .cls-1 {
        stroke-width: 0px;
      }
    </style>
  </defs>
  <g id="logos">
    <g id="momoe">
      <path class="cls-1" d="m188.77,212.61c.68-5.43,1.47-10.86,2.01-16.3,2.72-26.99,5.23-54.01,8.1-80.99,1.9-17.91,3.65-35.88,6.61-53.63,2.98-17.86,18.88-28.83,37.18-27.1,17.09,1.62,30.27,16.06,29.74,33.94-.4,13.35-2.11,26.67-3.44,39.98-2.06,20.71-4.28,41.41-6.45,62.11-3.27,31.24-6.58,62.47-9.83,93.71-1.93,18.48-3.63,36.99-5.75,55.45-1.74,15.2-13.21,26.71-28.63,29.37-14.01,2.42-28.57-5.24-35.42-18.04-11.67-21.81-23.64-43.45-35.47-65.17-11.64-21.39-23.18-42.85-34.91-64.19-9.04-16.45-18.31-32.76-28.74-49.24-.73,5.68-1.59,11.35-2.18,17.05-2.41,23.48-4.69,46.97-7.11,70.45-2.05,19.96-4.11,39.93-6.38,59.87-2.92,25.66-29.37,39.48-51.55,26.5-10.02-5.87-17.08-14.96-16.51-27.36.7-15.39,2.26-30.75,3.73-46.1,1.93-20.16,4.12-40.3,6.22-60.45,2.02-19.41,4.07-38.82,6.07-58.23,2.08-20.15,4.14-40.3,6.18-60.45.9-8.88,1.4-17.8,2.63-26.63,1.78-12.78,8.23-22.32,20.1-28.24,14.38-7.17,35.38-1.96,44.8,15.63,20.54,38.36,41.63,76.42,62.49,114.61,10.69,19.57,21.38,39.15,32.1,58.71.94,1.71,2.08,3.32,3.13,4.97.43-.08.86-.16,1.29-.23Z"/>
      <path class="cls-1" d="m521.56,291.68c.6-5.47.86-9.07,1.4-12.63,7.44-49.29,14.83-98.59,22.45-147.85,2.05-13.24,9.49-22.67,22.6-26.37,11.99-3.38,23-.68,31.69,8.51,3.06,3.24,5.77,3.58,9.81,2.6,34.64-8.4,65.16-.15,91.38,23.7,4.36,3.96,7.12,5.59,13.22,2.36,35.87-19.02,83.88-11.22,112.8,17.21,15.54,15.28,25.97,33.37,28.9,54.76,1.67,12.15.85,24.88-.54,37.16-2.54,22.34-6.28,44.55-9.67,66.79-1.17,7.71-2.24,15.5-4.31,22.99-5.89,21.25-27.38,30.9-47.92,23.14-16.05-6.06-24.42-21.79-21.83-38.98,4.5-29.8,8.96-59.6,13.41-89.4,1.73-11.6-3.97-22.92-14.34-28.6-9.44-5.16-21.86-4.18-29.91,4.04-4.18,4.26-7.71,10.48-8.72,16.31-4.73,27.29-8.46,54.76-12.59,82.16-1.63,10.79-4.09,21.18-12.82,28.89-10.76,9.49-23.07,11.62-36.4,7.35-13.05-4.18-21.54-13.73-22.93-26.96-1.14-10.85.75-22.14,2.25-33.11,3.13-22.85,6.97-45.6,10.39-68.41,1.81-12.1-2.7-21.71-12.81-28.26-9.36-6.06-19.18-5.21-28.46.45-7.51,4.58-10.76,11.87-12.01,20.4-4.15,28.15-8.48,56.28-12.78,84.41-.32,2.08-1.03,4.1-1.98,7.75-8.66-12.28-18.25-20.42-32.65-20.67-12.97-.23-25.71.04-37.6,10.26Z"/>
      <path class="cls-1" d="m733.97,549.87c-.03,14.5-8.27,26.7-20.6,31.6-13.71,5.45-28.35,3.02-37.24-7.87-8.05-9.86-14.76-20.84-21.78-31.51-2.09-3.17-3.99-4.67-8.08-4.04-36.2,5.61-72.43,11-108.65,16.46-.74.11-1.46.33-2.2.4-14.89,1.44-12.71.94-17.01,15.75-2.59,8.91-4.75,18.01-8.14,26.62-5.38,13.65-23.15,23.23-39.26,19.03-15.32-4-26.46-17.33-26.21-33.27.05-3.47,1.03-6.99,1.97-10.38,11.43-41.23,22.88-82.45,34.42-123.65,8.23-29.37,16.63-58.7,24.91-88.05,4.19-14.86,8.3-29.75,12.41-44.63,3.75-13.6,10.87-24.47,25.5-27.44,14.85-3.02,28.27-.1,37.28,13.62,9.28,14.14,18.41,28.37,27.59,42.57,11.71,18.12,23.44,36.22,35.09,54.38,11.85,18.48,23.51,37.07,35.41,55.51,15.53,24.06,31.29,47.96,46.81,72.03,4.67,7.25,8.58,14.9,7.79,22.88Zm-168.65-145.29c-1,1.81-1.48,2.41-1.67,3.08-7.37,26.47-14.68,52.95-22.1,79.41-1.34,4.8.53,5.42,4.78,4.75,20.18-3.17,40.38-6.18,60.58-9.16,7.52-1.11,8.08-2.18,4-8.45-11.83-18.19-23.65-36.39-35.5-54.56-3.11-4.78-6.35-9.47-10.11-15.07Z"/>
      <path class="cls-1" d="m357.48,265.84c3.42,3.45,6.37,7.61,10.33,10.23,16.67,11.01,34.77,13.17,53.24,5.6,8.09-3.31,15.66-8.35,22.7-13.62,9.63-7.2,19.67-9.44,30.83-5.08,12.33,4.81,18.62,13.98,19.25,27.36.57,12.24-4.63,21.14-13.63,29.03-21.82,19.13-47.67,28.39-75.95,29.84-25.01,1.29-48.55-5.2-69.48-19.88-20.94-14.7-34.89-34.75-42.21-58.68-7.9-25.83-7.06-51.91,3.03-77.59,9.12-23.21,23.97-41.38,44.82-54.62,13.41-8.52,28.57-12.52,44.21-14.4,16.03-1.93,31.79-.4,47.37,4.16,12.74,3.72,24.11,9.97,34.15,18.24,16.89,13.9,28.83,31.4,34.9,52.65,4.75,16.63-.32,33.66-14.56,41.46-7.69,4.21-17.2,5.54-26.08,7.08-24.92,4.31-49.94,8.05-74.92,12-8.96,1.42-17.93,2.77-26.9,4.16-.38.69-.76,1.39-1.14,2.08Zm75.27-65.17c-5.31-14.45-26.41-24.14-47.13-19.76-17.29,3.66-34.38,19.4-33.37,32.56,26.7-4.24,53.33-8.48,80.5-12.8Z"/>
      <path class="cls-1" d="m1408.85,504.7c-.14,48.01-33.78,89.08-81.06,97.64-33.98,6.15-64-3.05-88.44-27.47-16.78-16.77-26.09-37.52-28.48-61.46-2.79-27.91-5.97-55.8-9.79-83.58-4.12-29.99,19.42-49.57,46.64-41.83,11.16,3.17,19.52,10.89,22.07,22.4,2.85,12.83,4.24,26.01,5.87,39.09,2.49,19.91,4.08,39.95,7.15,59.76,1.96,12.62,11.17,24.04,30.77,22.48,11.62-.93,22.59-11.58,22.29-24.46-.34-14.8-2.13-29.59-3.66-44.34-1.84-17.74-4.4-35.4-6.04-53.15-1.74-18.75,13.05-36.3,31.16-37.81,21.33-1.78,38.12,11.82,40.31,31.92,3.31,30.29,7.12,60.52,10.66,90.78.39,3.32.37,6.68.54,10.02Z"/>
      <path class="cls-1" d="m981.95,348.46c-10.54.05-10.85.09-11.81-8.64-.92-8.35-1.53-16.56-6.07-24.06-4.64-7.66-11.47-12.77-19.63-14.64-15.73-3.6-31.39-3.44-45.57,6.31-.87.59-3.87-.33-4.63-1.42-9.54-13.64-15.46-28.69-17.31-45.33-2.28-20.5-4.75-40.97-7.16-61.45-1.24-10.52-3.36-21.01-3.58-31.55-.27-12.96,4.94-24.02,16.21-31.27,11.39-7.33,23.45-7.99,35.56-1.84,13.85,7.03,19.15,19.15,20.55,34.06,1.91,20.34,4.64,40.61,7.03,60.91.91,7.74,1.78,15.5,2.8,23.23,1.97,14.92,14.44,25.2,29.09,24.12,13.98-1.03,25.2-12.84,24.43-27.54-.8-15.37-3.24-30.65-4.78-45.99-1.8-17.92-4.27-35.83-4.87-53.79-.72-21.51,22.74-38.11,43.55-32.6,18.18,4.81,26.08,18.99,27.76,33.21,3.26,27.68,6.45,55.36,9.88,83.02,3.5,28.23-2.21,54.45-19.65,76.82-18.45,23.67-43.16,37.17-71.79,38.45Z"/>
      <path class="cls-1" d="m892.28,344.11c-.95-14.62,4.75-25.89,17.25-33.3,18.97-11.25,44.87-2.66,50.98,17.07,2.71,8.75,3.28,18.18,4.6,27.33.66,4.59,1.01,9.24,1.14,13.87.13,4.4,2.28,5.16,6.19,4.7,7.19-.85,14.41-1.56,21.64-1.81,18.08-.62,32.46,12.14,33.19,29.84.73,17.92-12.38,32.49-30.9,33.73-6.12.41-12.23.85-18.34,1.31-4.24.31-5.97,1.89-5.46,6.81,1.95,18.84,3.43,37.72,4.85,56.61,1.36,18.09,9.13,25.58,27.32,25.82,18.08.24,32.08,11.89,34.99,29.1,3.02,17.88-6.18,34.78-22.55,40.26-11.2,3.75-22.86,2.94-34.24.78-19.27-3.66-36.53-11.88-50.13-26.2-14.57-15.35-23.9-33.47-25.81-54.99-2.83-32-5.94-63.97-8.72-95.97-2.17-24.97-4-49.97-5.99-74.96Z"/>
      <path class="cls-1" d="m1157.46,446.1c-5.71-1.9-11.45-3.73-17.12-5.73-1.9-.67-3.57-2.03-5.47-2.68-5.07-1.73-10.62.11-12.17,3.82-1.38,3.3,2,8.95,6.65,10.92,7.17,3.04,14.78,5.3,21.51,9.11,21.32,12.06,33.36,30.69,36.61,54.91,2.93,21.77-3.46,40.96-17.7,57.27-12.72,14.57-29.27,22.52-48.47,25.02-24.26,3.17-45.51-4.51-64.87-18.3-15.97-11.37-17.63-41.52,5.05-52.71,11.32-5.58,22.49-5.57,33.28,1.9,6.03,4.18,12.48,7.49,20.31,5.44,4.53-1.19,7.95-3.71,8.51-8.44.54-4.59-1.38-8.42-5.95-10.33-4.79-2-9.8-3.56-14.4-5.9-23.39-11.89-40.66-29.44-45.17-55.97-4.48-26.34,5.2-48.16,26.01-64.94,12.59-10.16,27.23-15.79,43.17-16.08,19.41-.35,37.79,4.54,52.41,18.18,9.73,9.07,12.05,20.75,7.11,33.25-4.72,11.94-13.65,18.7-26.63,19.76-.74.06-1.48.1-2.23.16-.14.44-.28.89-.42,1.33Z"/>
      <path class="cls-1" d="m849.58,451.28c-9.29-1.17-18.31,1.99-25.23,10.65-5.63,7.04-5.58,15.62-6.5,23.84-2.32,20.68-4.21,41.4-6.39,62.09-.82,7.75-1.37,15.6-3.11,23.16-4.42,19.19-23.59,30.37-42.91,26.09-16.98-3.76-29.16-20.61-27.28-38.69,3.98-38.44,7.66-76.92,11.51-115.37,1.41-14.05,2.69-28.12,4.49-42.12,1.66-12.9,8.87-22.17,21.03-26.57,11.52-4.17,22.56-1.63,31.79,6.28,3.19,2.73,5.7,2.91,9.45,2.34,11.34-1.74,22.76-3.98,34.14-4,7.46-.01,15.51,2.31,22.26,5.67,13.93,6.92,21.48,24.4,17.88,38.03-4.77,18-17.64,28.49-35.16,28.61-1.49.01-2.98,0-5.96,0Z"/>
      <path class="cls-1" d="m1181.94,157.95c-1.52,11.17-3.54,26.09-5.57,41.01-4.86,35.75-9.62,71.51-14.62,107.23-2.4,17.13-11,30.08-28.46,34.04-25.32,5.75-46.6-14.6-43.66-39.04,5.33-44.31,12.06-88.44,18.18-132.65.87-6.26,1.56-12.55,2.41-18.81,2.92-21.58,18.84-34.98,39.91-33.61,18.13,1.18,31.87,17.59,31.81,41.84Z"/>
      <path class="cls-1" d="m342.14,17.82c7.78-1.25,14.52-2.78,21.34-3.31,10.54-.82,17.68,5.39,22.7,13.58,6.84,11.14,4.92,29.37-3.24,39.45-7.52,9.29-22.59,9.87-31.91,1.23-7.01-6.5-6.42-20.84,1.55-27.47,2.23-1.86,5.55-2.76,8.52-3.3,3-.55,6.18-.12,9.54-.12-2.23-6.3-11.28-9.14-17.69-5.65-6.64,3.62-12.5,8.04-11.26,17.29.66,4.93.16,10.03.1,15.05-.09,6.87-2.9,10.81-7.74,10.99-5.43.21-8.53-3.32-9.05-10.24-.05-.72-.23-1.43-.56-3.44-1.97,2.13-3.41,3.54-4.7,5.08-3.88,4.66-9.17,5.78-13.18,2.71-3.91-3-4.11-7.58.09-12.77,5.02-6.2,10.55-11.99,15.65-18.13,1.19-1.43,2.44-3.77,2.04-5.26-.31-1.15-3.09-1.91-4.89-2.31-2.89-.65-5.88-.87-8.82-1.27-4.49-.61-6.58-3.55-6.44-7.72.14-4.12,2.54-6.92,6.79-7.66,1.45-.25,2.98-.26,4.45-.15,5.68.41,10.22.22,10.02-7.78-.1-4.18,3.66-6.77,8.21-6.65,4.98.13,7.29,3.42,7.91,7.85.51,3.59.42,7.27.55,9.97Zm29.85,31.52c-3.13,0-6.3-.54-9.12.21-1.56.42-3.29,2.91-3.51,4.64-.13,1.03,2.38,3.12,3.99,3.49,4.56,1.04,7.64-1.91,8.64-8.34Z"/>
      <path class="cls-1" d="m438.59,23.55c-1.93-.41-3.85-1.13-5.79-1.17-7.63-.14-15.26,0-22.89-.09-5.87-.07-8.83-2.52-8.82-6.98.01-4.9,3-7.55,8.89-7.62,7.63-.09,15.28.23,22.88-.19,2.39-.13,5.28-1.51,6.92-3.27,5.19-5.56,9.74-5.56,14.97-.02,1.68,1.78,4.6,3.02,7.08,3.28,4.97.52,10.04.1,15.06.26,4.51.14,6.8,2.67,6.76,7.16-.04,4.43-2.38,7.05-6.79,7.27-5.01.25-10.05.27-15.07.09-4.21-.15-6.23,1.37-6.04,5.8.21,5.02-.12,10.06.14,15.07.45,8.76,5.53,13.5,14.28,13.67,2.23.04,4.49-.12,6.69.12,4.67.51,7.57,3.16,7.85,7.91.28,4.82-2.3,8.03-7.04,8.47-11.64,1.08-23.31,1.58-31.93-8.6-2.43-2.87-4.48-1.26-6.83-.03-8.88,4.64-22.44,2.41-29.58-4.35-6.51-6.17-7.85-13.59-4.93-21.44,3.04-8.17,9.75-12.54,18.42-13.23,5.09-.4,10.24-.07,15.36-.07.14-.68.27-1.36.41-2.04Zm-9.26,28.82c6.04-.06,9.56-2.45,9.41-6.37-.15-3.8-4.46-6.93-9.43-6.87-5.13.07-8.9,2.81-8.99,6.53-.1,4.3,3.21,6.76,9.01,6.7Z"/>
      <path class="cls-1" d="m1157.76,38.97c17.58,0,33.12,15.06,32.6,32.1-.66,21.49-14.52,32.66-32.35,33.58-18.79.97-34.18-15.17-34.18-34.3,0-17.15,15.37-31.37,33.94-31.37Z"/>
      <g>
        <path class="cls-1" d="m1420.66,263.71c-2.28,7.42-4.05,14.24-6.46,20.83-6.13,16.69-18.74,26.71-34.76,33.23-17.04,6.94-33.43,5.47-48.24-5-12.84-9.08-21.96-21.42-26.75-36.81-7.34-23.55-7.08-47.13-2.32-71.11,3.04-15.32,7.02-30.31,16.12-43.02,11.6-16.2,26.88-27.72,47.26-30.76,31.75-4.73,61.54,2.69,89.61,16.65,19.83,9.86,34.64,25.36,42.52,46.76,7.02,19.04-2.21,44.6-20.25,58.39-16.17,12.36-33.75,15.39-53.14,11.27-1.25-.27-2.55-.3-3.59-.42Z"/>
        <path class="cls-1" d="m1269.46,233.9c-17.77,5.38-39.66-9.08-46.04-26.81-3.47-9.62-5.74-19.11.37-28.86,6.37-10.17,16.11-15.09,27.53-11.53,17.42,5.44,29.38,17.7,36.04,34.19,5.71,14.15-3.21,29.15-17.9,33.01Z"/>
        <path class="cls-1" d="m1452.3,81.5c-.06,6.58.74,13.31-.37,19.71-2.01,11.67-9.1,19.51-21.08,21.68-11.84,2.15-20.95-3.44-27.23-12.64-6.15-9.01-10.99-18.89-12.31-30.14-1.51-12.86,2.16-22.29,11.3-27.49,9.95-5.66,22.85-4.24,32.32,3.55,9.63,7.92,12.58,12.58,17.37,25.34Z"/>
        <path class="cls-1" d="m1296.05,164.2c-9.25,3.29-18.39-.17-26.01-7.09-12.79-11.61-18.02-26.25-13.97-43.33,4.07-17.17,17.84-24.24,33.66-16.19,16.22,8.25,25.82,22.26,26.99,40.78.75,11.91-7.8,22.35-20.67,25.84Z"/>
        <path class="cls-1" d="m1315.3,93.54c-3.69-12.73-3.91-21.53,1.8-29.37,4.36-5.98,11.05-8.5,18.12-8.2,21.43.91,41.64,18.07,42.17,40.39.24,9.93-4.01,17.67-12.26,22.92-8.81,5.61-17.97,5.96-27.39.9-12.45-6.68-19.05-17.69-22.44-26.65Z"/>
      </g>
      <path class="cls-1" d="m631.26,3.18c7.82,0,15.64.18,23.45-.04,10.71-.32,18.26,4.44,22.71,13.94,4.59,9.79,3.37,19.06-3.13,27.8-6.95,9.34-16.56,9.72-26.65,8.12-4.71-.75-6.87-4.13-6.38-8.97.47-4.64,3.18-6.94,7.72-7.23,1.67-.11,3.35-.02,5.02-.12,5.91-.35,8.44-3.04,8.38-8.82-.05-5.4-2.48-7.77-8.56-7.8-14.33-.09-28.66-.03-42.99-.04-1.86,0-3.73.06-5.58-.1-6.5-.54-9.96-3.83-9.76-9.16.19-5.3,3.12-7.53,10.09-7.56,8.56-.04,17.12,0,25.68,0Z"/>
      <path class="cls-1" d="m823.25,73.61c-1.86,0-3.72.09-5.58-.02-4.23-.25-7.13-2.26-7.6-6.67-.49-4.63,1.54-7.9,6-9.52.35-.13.72-.28,1.08-.26,16.53.86,21.25-10.69,24.82-23.53,2.3-8.24,4.6-16.48,7.26-24.61,1.93-5.91,6.96-8.2,11.72-5.78,3.51,1.78,5.7,4.69,4.48,8.62-5.05,16.28-8.18,33.25-17.26,48.09-5.83,9.53-13.43,13.75-24.93,13.68Z"/>
      <path class="cls-1" d="m500.45,27.42c0-5.96-.14-11.92.04-17.86.17-5.68,3.23-8.55,8.3-8.24,5.25.32,7.92,3.94,7.92,9.48,0,11.5.13,23.01.7,34.5.36,7.29,4.48,10.85,11.84,11.6,1.83.19,3.76.38,5.4,1.11,3.9,1.72,5.39,4.94,4.7,9.12-.68,4.09-3.27,5.98-7.27,6.44-18.34,2.14-30.72-9.05-31.59-28.84-.25-5.76-.04-11.54-.04-17.31Z"/>
      <path class="cls-1" d="m566.31,46.38c0-4.28.12-8.57-.03-12.84-.3-8.69-5.39-13.96-14.01-14.69-5.9-.5-9.37-3.87-9.28-9.03.09-5.08,3.08-7.49,9.53-7.69,16.54-.5,26.27,6.78,28.63,23.16,1.58,10.97,1.63,22.21,1.69,33.34.03,6.36-3.63,9.64-8.74,9.33-4.71-.29-7.73-2.47-7.75-7.62,0-.37-.02-.74-.02-1.12,0-4.28,0-8.56,0-12.84h-.03Z"/>
      <path class="cls-1" d="m734.38,44.6c-9.48,0-18.96.06-28.44-.02-6.33-.06-9.02-2.6-8.91-8.06.11-5.15,2.74-7.54,8.84-7.56,19.15-.07,38.29-.06,57.44,0,5.49.02,9.41,3.18,9.53,7.31.15,5.16-3.34,8.29-9.46,8.32-9.67.05-19.33.01-29,.01Z"/>
      <path class="cls-1" d="m608.88,73.71c-5.41-.1-10.01.21-11.97-4.85-2.3-5.94,1.13-10.95,7.89-11.9,10.25-1.44,14.77-6.08,16.2-16.49.46-3.31.75-6.72,1.81-9.85,1.5-4.46,5.37-6.15,9.75-5.85,4.65.32,6.45,4.02,6.17,7.93-.93,12.82-3.57,25.11-13.76,34.28-4.88,4.39-10.43,7.13-16.09,6.73Z"/>
      <path class="cls-1" d="m804.29,23.35c0,3.91.16,7.82-.04,11.72-.24,4.71-3.79,8.13-8.16,8.24-4.81.12-8.37-3.15-8.49-8.32-.18-7.81-.2-15.63.01-23.44.15-5.61,3.12-8.31,8.36-8.29,5.23.02,8.02,2.71,8.3,8.38.19,3.9.04,7.81.03,11.72Z"/>
      <path class="cls-1" d="m827.78,23.42c0,3.9.02,7.81,0,11.71-.03,4.92-2.61,7.69-7.41,8.07-4.73.38-8.56-2.02-8.85-6.6-.56-9.05-.4-18.18.09-27.25.26-4.73,4.07-6.31,8.49-6.08,4.29.23,7.15,2.42,7.48,6.77.34,4.43.07,8.91.07,13.37.04,0,.08,0,.11,0Z"/>
      <path class="cls-1" d="m475.5,30.65c4.98-.07,8.79,3.64,8.89,8.68.1,4.96-3.62,8.54-8.91,8.57-5.23.03-9.5-4.02-9.4-8.89.1-4.45,4.43-8.29,9.42-8.36Z"/>
    </g>
  </g>
</svg>