<?xml version="1.0" encoding="UTF-8"?>
<svg id="Camada_2" data-name="Camada 2" xmlns="http://www.w3.org/2000/svg" width="1500" height="681.55" viewBox="0 0 1500 681.55">
  <defs>
    <style>
      .cls-1 {
        stroke-width: 0px;
      }
    </style>
  </defs>
  <g id="logos">
    <g id="shira">
      <g>
        <g>
          <path class="cls-1" d="m213.99,258.23l20.38,53.57-2.38.4c-.67.11-1.34-.13-1.8-.63-1.76-1.96-6.92-7.41-15.48-16.36-10.77-11.25-23.1-19.94-36.97-26.06-13.88-6.11-29.55-9.17-47.02-9.17-29.31,0-52.55,8.4-69.73,25.18-17.18,16.79-25.77,37.02-25.77,60.7,0,15.72,4.03,29.46,12.08,41.2,8.05,11.75,24.88,22.7,50.48,32.86,44.02,14.85,74.14,26.01,90.37,33.47,16.22,7.46,31.86,20.12,46.91,37.95,15.06,17.84,22.59,40.72,22.59,68.64,0,11.64-1.36,22.74-4.07,33.3-2.72,10.57-7.09,20.75-13.1,30.54-6.02,9.79-13.25,18.72-21.69,26.76-8.44,8.05-17.03,14.16-25.77,18.32-8.73,4.17-22.52,7.32-41.34,9.45-18.83,2.13-31.25,3.2-37.27,3.2H0v-124.61h4.37c.39,41.34,10.09,70.17,29.11,86.47,19.02,16.3,48.62,24.46,88.8,24.46,36.49,0,64.2-8.63,83.12-25.91,18.92-17.27,28.39-38.04,28.39-62.3,0-14.75-3.3-27.32-9.9-37.7-6.6-10.38-15.82-19.51-27.66-27.37-11.84-7.86-34.25-17.45-67.22-28.77-32.78-11.52-55.83-21.59-69.14-30.22-13.31-8.63-24.43-21.62-33.37-38.98-8.94-17.35-13.41-35.05-13.41-53.09,0-33.16,11.4-60.99,34.21-83.48,22.81-22.5,52.74-33.75,89.82-33.75,14.36,0,29.89,1.65,46.58,4.95,16.69,3.3,26.01,5.44,27.95,6.41.77.39,1.55.58,2.33.58,0,0,0,0,0,0Z"/>
          <path class="cls-1" d="m555.65,467.56h-195.77c-1.18,0-2.13.96-2.13,2.13v162.72c0,15.51.73,25.39,2.18,29.66,1.46,4.27,4.17,7.85,8.15,10.76,3.69,2.7,9.94,4.14,18.74,4.34,1.16.03,2.08.99,2.08,2.15v.09c0,1.2-.96,2.15-2.13,2.15h-106.66c-1.18,0-2.13-.96-2.13-2.13h0c0-1.19.98-2.16,2.17-2.13,18.74.53,28.11-9.3,28.11-29.49v-344.76c0-19.59-1.6-32-4.8-37.24-3.04-4.98-10.86-7.85-23.45-8.63-1.13-.07-2.02-.99-2.02-2.13v-.17c0-1.21.96-2.17,2.13-2.17h106.66c1.18,0,2.13.96,2.13,2.13v.25c0,1.12-.87,2.04-1.98,2.13-11.14.9-18.73,3.18-22.76,6.84-4.27,3.89-6.41,11.84-6.41,23.87v165.56c0,1.18.96,2.13,2.13,2.13h233.4v-153.43c0-17.47-1.51-29.36-4.51-35.67-2.86-5.99-10.57-9.13-23.13-9.44-1.15-.03-2.06-.98-2.06-2.13v-.13c0-1.18.96-2.13,2.13-2.13h105.2c1.18,0,2.13.96,2.13,2.13v.12c0,1.17-.94,2.11-2.11,2.13-7.6.16-13.33,1.17-17.21,3.04-4.23,2.04-7.11,5.19-8.65,9.45-1.54,4.27-2.31,15.13-2.31,32.58v329.06c0,16.88.77,27.4,2.31,31.57,1.54,4.17,4.23,7.62,8.08,10.33,3.56,2.51,9.5,3.86,17.83,4.05,1.15.03,2.07.98,2.07,2.13v.12c0,1.18-.96,2.13-2.13,2.13h-105.2c-1.18,0-2.13-.96-2.13-2.13v-.14c0-1.14.9-2.09,2.04-2.12,10.71-.27,17.94-2.68,21.68-7.24,3.98-4.84,5.97-17.93,5.97-39.25v-125.47c0-20.79-16.85-37.63-37.63-37.63Z"/>
          <path class="cls-1" d="m815.94,254.68v.28c0,1.11-.91,2.01-2.02,1.97-5.1-.21-10.68.71-16.76,2.77-6.89,2.33-10.97,5.72-12.23,10.18-1.26,4.46-1.89,15.03-1.89,31.71v329.06c0,17.85.73,28.75,2.18,32.73s4.27,7.27,8.44,9.89c3.91,2.46,10.68,3.76,20.31,3.91,1.08.02,1.96.89,1.96,1.97v.43c0,1.09-.88,1.97-1.97,1.97h-110.47c-1.09,0-1.97-.88-1.97-1.97v-.44c0-1.08.88-1.95,1.96-1.97,13.22-.24,21.49-3,24.83-8.27,3.49-5.53,5.24-18.09,5.24-37.68v-325.85c0-20.37-1.94-33.7-5.82-40-3.69-5.99-11.75-8.78-24.19-8.38-1.1.04-2.01-.87-2.01-1.97v-.33c0-1.09.88-1.97,1.97-1.97h110.47c1.09,0,1.97.88,1.97,1.97Z"/>
          <path class="cls-1" d="m1497.89,677.19c-15.34-.66-26.85-8.76-34.49-24.3-7.68-15.55-11.67-24.53-11.98-26.94-.03-.18-.06-.36-.13-.53l-155.38-372.81c-.34-.83-1.16-1.37-2.09-1.37h-4.82c-.92,0-1.74.54-2.09,1.39l-158.07,386.32c-.74,1.78-1.46,3.47-2.17,5.11-2.51,5.66-10.41,6.58-14.26,1.67l-.09-.12c-8.32-10.6-17.95-26.12-28.9-46.57l-80.08-143.58c-.72-1.3.06-2.89,1.55-3.17,35.48-6.82,63.28-19.5,83.41-38.05,20.69-19.06,31.02-41.56,31.02-67.5,0-28.68-11.25-51.57-33.77-68.68-22.51-17.09-53.85-25.63-94.02-25.63h-154.75c-1.25,0-2.26.97-2.26,2.18v1.19c0,1.1.85,2.02,1.99,2.16,12.31,1.54,21.82,3.71,28.59,6.51.45.51.84,1.05,1.19,1.62,3.87,6.3,5.82,19.61,5.82,39.94v325.3c0,19.02-1.67,31.39-4.96,37.14-.09.17-.18.32-.28.48-3.33,5.26-11.61,8.02-24.83,8.25-1.07.03-1.95.89-1.95,1.97v.44c0,1.09.88,1.97,1.98,1.97h110.47c1.08,0,1.98-.88,1.98-1.97v-.43c0-1.09-.88-1.96-1.96-1.97-9.63-.16-16.4-1.45-20.31-3.91-2.39-1.5-4.34-3.23-5.84-5.17-1.12-1.45-1.98-3.02-2.61-4.7-1.45-3.97-2.18-14.86-2.18-32.67v-172.49c.48-.06.97-.1,1.47-.1h13.08c14.19,0,24.74,2.57,31.64,7.67,6.9,5.11,14.8,16.11,23.74,33.01l57.82,108.48c15.41,29.86,29.6,50.2,42.59,61,3.05,2.53,6.22,4.77,9.53,6.71l.14.08c7.21,4.24,15.48,6.48,23.9,6.48h24.58c1.25,0,2.26-.97,2.26-2.19h0c0-1.17-.94-2.11-2.13-2.18-8.06-.44-12.19-3.42-12.42-8.94-.01-.16-.01-.34-.01-.51,0-2.68,2.29-9.78,6.84-21.3l61.19-147.82c3.06-7.39,10.45-12.22,18.66-12.22h113.33c.92,0,1.74.54,2.09,1.37l62.04,149.16c.19,0,.46.91.85,2.7.03.12.06.25.1.35.5,1.44,1.08,2.54,1.74,3.28.18.21.34.43.44.67,4.44,10.37,6.66,17.91,6.66,22.65,0,6.54-3.94,10.07-11.84,10.59-1.19.08-2.12,1.02-2.12,2.18h0c0,1.23,1.01,2.2,2.26,2.2h97.7c1.25,0,2.26-.97,2.26-2.19,0-1.14-.92-2.13-2.11-2.18Zm-576.29-226.12v-148.83c0-16.65.63-27.21,1.9-31.66.74-2.6,2.43-4.83,5.09-6.71,7.41-2.93,17.64-4.38,30.68-4.38h21.92c32.04,0,56.69,8.05,73.93,24.17,17.24,16.11,25.87,38.9,25.87,68.38,0,23.57-4.87,42.44-14.61,56.59-9.74,14.14-26.28,24.75-49.59,31.83-23.22,7.04-54.95,10.57-95.19,10.61Zm408.54,23.55h-111.75c-1.59,0-2.69-1.56-2.09-2.99l55.92-136.4c.75-1.84,3.44-1.84,4.18,0l55.83,136.4c.58,1.44-.5,2.99-2.09,2.99Z"/>
        </g>
        <g>
          <path class="cls-1" d="m475.97,76.74c-15.99,0-33.75,11.72-41.21,29.49l.36,90.6h-14.57v-124.35c8.53,0,14.21,5.33,14.21,13.5v14.21c10.3-17.76,29.84-28.78,47.61-28.78,18.83,0,35.53,12.79,35.53,43.7v60.04c0,9.59,3.2,14.57,7.46,14.57,2.84,0,5.68-1.78,8.88-5.33l.71.71c-4.62,8.53-10.3,12.08-16.7,12.08-11.72,0-14.57-11.37-14.57-24.16v-61.11c0-24.87-12.79-35.17-27.71-35.17Z"/>
          <path class="cls-1" d="m660.36,149.22c-8.17,25.23-29.49,49.03-59.69,49.03-37.31,0-60.75-28.78-60.75-64.66,0-33.75,20.96-62.18,56.49-62.18,25.94,0,43.35,22.38,43.35,43.7h-82.78c-1.07,5.68-1.42,11.37-1.42,16.34,0,29.84,14.92,58.98,49.03,58.98,22.38,0,42.63-13.86,52.94-41.92l2.84.71Zm-102.68-36.59c11.01,0,66.44.36,66.44,0,0-14.92-8.17-39.08-28.78-39.08-22.03,0-33.4,19.19-37.66,39.08Z"/>
          <path class="cls-1" d="m777.25,174.09l41.92-101.61h3.55l-50.81,124.71-33.4-74.97-30.55,74.97-55.07-124.71h1.42c8.53,0,16.34,4.97,19.9,12.79l39.44,88.82,23.09-56.49-19.9-45.12h1.42c8.53,0,16.7,5.33,19.9,12.79l39.08,88.82Z"/>
          <path class="cls-1" d="m838,81.36c0-51.52,35.88-81.36,68.57-81.36v14.92c-7.11-1.42-13.5-2.13-18.83-2.13-27.36,0-35.53,17.76-35.53,59.69v17.41c9.59-11.37,24.16-18.48,41.92-18.48,66.08,0,80.3,126.48,4.26,126.48-19.9,0-35.53-7.82-46.19-20.61v5.33c0,8.53-5.68,14.21-14.21,14.21v-115.47Zm15.28,50.1c0,29.84,7.11,61.82,41.21,61.82,59.69,0,42.99-119.73-1.42-119.73-29.13,0-39.79,34.11-39.79,57.91Z"/>
          <path class="cls-1" d="m1049.04,165.92c-8.53,22.38-27.36,31.98-44.77,31.98-19.9,0-38.37-12.44-38.37-32.33,0-43.7,88.82-35.53,77.1-80.65-4.62-7.11-12.08-11.37-20.61-11.37-22.03,0-39.44,21.67-36.95,41.57h-16.7c5.33-27,32.69-43.7,56.14-43.7,25.94,0,38.37,15.63,38.37,46.19v57.56c0,9.59,3.2,14.57,7.46,14.57,2.84,0,5.68-1.78,8.88-5.33l.71.71c-4.62,8.53-10.3,12.08-16.34,12.08-11.37,0-14.57-10.66-14.92-22.74v-8.53Zm0-58.27c0-6.04-1.07-11.37-2.84-15.99,3.55,36.59-64.31,31.62-64.66,73.19,0,17.76,12.44,26.65,26.65,26.65,17.76,0,38.02-13.15,40.86-39.08v-44.77Z"/>
        </g>
      </g>
    </g>
  </g>
</svg>