<?xml version="1.0" encoding="UTF-8"?>
<svg id="Camada_2" data-name="Camada 2" xmlns="http://www.w3.org/2000/svg" width="1500" height="762.83" viewBox="0 0 1500 762.83">
  <defs>
    <style>
      .cls-1 {
        stroke-width: 0px;
      }
    </style>
  </defs>
  <g id="logos">
    <g id="plumerina">
      <path class="cls-1" d="m1055.91,500.89c15.98,23.8,31.34,46.67,46.69,69.55,1.15-.13,2.29-.27,3.44-.4,0-22.02-.27-44.05.07-66.07.47-30.86,23.86-49.75,54.98-44.84,23.18,3.66,37.67,18.69,37.82,42.05.46,72.08.38,144.16.05,216.23-.1,21.5-11.4,35.75-30.91,41.69-21.67,6.61-42.38.38-55.54-18.02-16.7-23.35-32.56-47.27-48.83-70.92-3.27-4.76-6.73-9.39-13.82-13.22,0,19.71.43,39.42-.1,59.11-.8,29.59-22.51,47.82-52.59,44.84-23.21-2.3-40.47-18.57-40.65-41.37-.59-73.07-.67-146.16.02-219.23.25-26.26,20.82-42.34,49.51-42.18,5.35.03,10.72-2.48,15.09-6.38-22.17,1.62-44.38,4.99-66.51,4.55-66.24-1.33-109.66-39.12-114.2-103.83-3.74-53.31-2.1-107.04-1.49-160.57.25-21.76,18.45-37.07,41.45-38.65,24.84-1.71,44.67,11.41,49.46,33.24,1.27,5.8,1.42,11.91,1.44,17.88.13,42.55-.1,85.09.17,127.64.15,23.77,10.08,33.5,33.01,33.53,23.1.03,33.41-9.72,33.58-33.15.32-44.55-.1-89.1.23-133.64.22-29.7,21.88-48.32,51.84-45.37,25.47,2.51,40.76,19.18,40.89,45.63.24,49.52.07,99.04.07,148.56,1.48,1.37,2.96,2.73,4.44,4.1,1.62-3.55,2.44-7.82,4.97-10.55,17.87-19.23,35.05-39.24,54.4-56.96,61.18-55.99,77.15-123.77,56.77-201.4-7.21-27.46-15.9-54.54-22.84-82.72,18.22,29.64,38.53,58.27,54.15,89.17,20.99,41.54,39,84.59,56.77,127.6,3.67,8.87,2.38,20.72.41,30.63-5.14,25.86-11.51,51.51-18.36,76.99-1.73,6.42-6.36,12.55-10.98,17.66-11.09,12.29-22.7,24.16-34.62,35.68-8.14,7.87-16.42,15.96-25.88,22.09-46.76,30.3-93.98,59.92-140.93,89.94-4.58,2.93-8.45,6.91-13.5,11.11Z"/>
      <path class="cls-1" d="m292.76,5.52c-8.05,29.83-17.25,59.42-23.92,89.54-15.14,68.37-.33,128.74,51.4,179.3,27.31,26.69,52.85,55.13,80.44,84.09.32-5.99.82-11.19.83-16.4.08-47.05-.03-94.09.11-141.14.1-34.42,14.27-48.19,49.4-48.27,30.12-.07,60.27-.83,90.35.2,78.1,2.67,122.64,76.69,89.9,146.37-24.01,51.08-94.71,66.05-135.74,37.7,0,24.19-.01,46.93,0,69.67.01,20.68-5.03,38.71-26.36,50.85,11.82,0,23.65-.11,35.47.02,30.51.34,50.42,19.07,49.99,46.88-.43,27.35-19.86,45.05-49.95,45.19-29.54.14-59.08.03-88.29.03-5.51,11.03-1.75,14.48,8.72,14.34,20.41-.28,40.84-.29,61.26-.02,28.88.37,47.92,18.41,48.26,45.3.35,27.32-19.14,46.07-48.64,46.42-20.42.25-40.84.31-61.25-.01-9.81-.16-13.15,3.39-9.07,14.39,30.41,0,61.43-.34,92.43.09,35.8.5,57.33,35.7,41.4,67.13-8.31,16.4-22.24,24.61-40.62,24.71-47.98.26-95.97.51-143.95-.08-28.16-.34-43.6-15.65-43.76-43.35-.43-72.07-.39-144.14-.08-216.21.12-27.88,8.94-36.45,46.39-47.14-4.71-3.46-8.44-6.68-12.61-9.2-18.26-10.99-36.15-22.72-55.1-32.42-25.96-13.28-51.01-26.91-66.12-53.16-3.15-5.46-8.23-11.1-13.84-13.72-15.66-7.32-17.98-20.01-20.28-35.06-3.14-20.59-10.47-40.53-14.8-60.99-2.21-10.45-4.86-22.3-2-32.01,7.33-24.9,15.3-50.12,27.22-73.12,24.89-48.02,52.5-94.68,78.99-141.9,1.27.65,2.54,1.29,3.82,1.94Zm204.15,235.03v45.6c15.36-4.7,30.15-9.01,44.77-13.78,8.95-2.92,16.69-9.11,12.76-18.54-2.39-5.74-10.68-11.7-17.1-12.69-12.78-1.97-26.1-.58-40.43-.58Z"/>
      <path class="cls-1" d="m671.73,647.34c0,23.29.39,46.59-.1,69.88-.63,30-18.29,45.83-48.98,44.78-27.88-.96-44.06-15.89-44.25-43.24-.48-72.59-.5-145.19-.01-217.78.19-28.53,15.87-42.95,45.2-43.46,18.33-.32,36.68-.06,56.34-1.22-26.97-12.07-27.59-34.67-27.44-58.25.42-66.08.05-132.17.35-198.26.14-31.9,25.87-52.19,57.14-45.78,21.89,4.49,35.23,20.6,35.4,44.46.34,49.06.13,98.13.14,147.19,0,5.43,0,10.87,0,19.16,13.35,0,25.32-.18,37.28.04,28.61.52,46.83,18.97,46.28,46.64-.55,27.53-18.16,44.8-46.25,45.13-14.79.17-29.58.03-45.06,1.08,41.29,10.72,72.47,31.96,80.04,75.53,7.36,42.37-6.78,76.89-45.22,101.97,10.48,16.47,20.65,32.48,30.85,48.46,9.49,14.86,12.63,30.74,6.17,47.34-6.93,17.82-20.41,28.88-39.95,30.68-18.16,1.68-31.5-7.32-40.3-22.31-15.04-25.58-29.48-51.5-44.27-77.22-3.11-5.4-6.65-10.57-10-15.84-1.12.34-2.24.69-3.36,1.03Zm1.06-56.17c15.29-4.61,30-8.98,44.66-13.5,9.07-2.79,16.98-8.57,13.46-18.08-2.13-5.75-10.4-12.07-16.71-13.02-13.22-1.99-26.96-.6-41.41-.6v45.19Z"/>
      <path class="cls-1" d="m93.01,614.84c0,12.25,0,24.5,0,36.75-.01,22.01.41,44.03-.16,66.02-.7,26.78-20.13,44.12-47.78,43.56-26.75-.54-44.87-18.2-44.94-44.73-.2-69.02-.12-138.05-.04-207.07.02-18.29-.09-38.03,20.43-46.28,22.89-9.2,46.91-8.27,66.23,8.51,13.2,11.47,23.56,26.15,34.88,39.63,9.3,11.07,18.16,22.5,28.61,35.5,17.53-22.11,33.81-42.4,49.82-62.89,15.72-20.12,36.31-28.19,61.77-24.9,20.23,2.61,30.12,11.33,34.2,30.75,1.02,4.86,1.49,9.92,1.5,14.89.1,70.52.39,141.05-.03,211.57-.22,36.01-37.24,56.66-69.76,39.62-16.05-8.41-23.03-21.87-22.98-39.39.09-30.51.03-61.02-.03-91.53,0-3.33-.41-6.67-.95-14.69-9.23,11.49-16,19.68-22.51,28.07-22.98,29.58-43.11,29.72-65.54.39-6.31-8.25-12.68-16.46-19.03-24.69-1.23.31-2.47.62-3.7.92Z"/>
      <path class="cls-1" d="m1268.07,762.6c-41.62-.25-63.28-31.88-48.17-65.16,31.73-69.87,63.96-139.51,96.19-209.15,8.86-19.14,23.28-31.87,45.78-31.95,22.78-.07,36.34,12.95,44.68,32.66,29.69,70.18,59.74,140.21,89.21,210.48,10.98,26.17.09,49.71-26.33,59.69-26.14,9.86-50.27-.61-60.82-26.4q-11.29-27.61-41.58-27.63c-3.06,0-6.17.36-9.17-.06-27.25-3.86-47.29.9-54.62,32.4-3.99,17.13-20.96,24.81-35.17,25.13Zm103.03-132.65c-3.33-9.71-6.17-18-9.01-26.28-1.13.03-2.25.07-3.38.1-3.37,8.38-6.74,16.76-10.53,26.18h22.92Z"/>
      <path class="cls-1" d="m932.17,609.92c0,34.5.14,69-.05,103.5-.16,29.72-18.09,47.91-46.59,47.75-28.77-.16-46.21-18-46.28-48.06-.15-69-.16-138,0-207.01.07-30.01,17.69-47.79,46.58-47.75,28.63.04,46.13,18.02,46.29,48.05.18,34.5.04,69,.04,103.5Z"/>
    </g>
  </g>
</svg>