<?xml version="1.0" encoding="UTF-8"?>
<svg id="Camada_2" data-name="Camada 2" xmlns="http://www.w3.org/2000/svg" width="1500" height="443.82" viewBox="0 0 1500 443.82">
  <defs>
    <style>
      .cls-1 {
        stroke-width: 0px;
      }
    </style>
  </defs>
  <g id="logos">
    <g id="ronaldo">
      <g>
        <g>
          <path class="cls-1" d="m187.5,180.01c4.76,9.15,9.64,17.95,13.96,27.02,3.57,7.49,6.5,15.29,9.67,22.98,7.81,18.91-6.93,46.35-25.17,53.69-22.32,8.98-46.97,1.54-58.35-19.15-10.78-19.61-20.6-39.74-32.99-59.54-.6,5.87-1.11,11.76-1.82,17.61-1.01,8.27-1.27,16.77-3.43,24.73-5.23,19.23-22.33,31.76-42.11,32.01-20.48.26-37.91-12.18-44-31.5C.04,237.65-.56,227.39.44,216.59c2.31-24.99,3.36-50.1,5.12-75.15,2.29-32.5,4.38-65.02,7.28-97.47C15.39,15.5,32.35-.79,60.51.03c26.36.77,52.81,2.97,78.94,6.59,48.24,6.69,83.53,52.93,81.48,100.41-.93,21.63-7.23,40.45-20.68,57.13-4.12,5.11-8.24,10.23-12.75,15.84Zm-88.13-62.76c7.39,0,13.45.57,19.34-.16,6.07-.75,10.59-3.98,11.04-11.05.47-7.36-1.68-12.22-8.64-14.54-5.61-1.88-11.76-2.16-18.96-3.37-.98,10.25-1.79,18.78-2.78,29.12Z"/>
          <path class="cls-1" d="m1175.27,69.74c1.39-11.94,2.03-22.45,3.92-32.73,4.01-21.86,24.99-33.98,43.64-31.83,22.63,2.6,37.69,24.7,37.3,42.74-.92,42.72-.26,85.47-.26,128.2,0,22.47-.72,44.96.09,67.4,1.28,35.54-36.57,53.36-64.29,35.41-1.45-.94-3.01-1.71-4.38-2.49-8.63,2.87-16.77,6.41-25.27,8.26-60.56,13.22-115.5-24.43-126.42-85.92-4.88-27.48-1.07-53.59,11.37-78.28,20.2-40.1,63.79-61.56,108.11-53.86,5.14.89,10.25,1.96,16.19,3.1Zm2.61,106.52c.2-14.73-12.96-28.28-27.36-28.19-14.56.09-27.64,13.38-27.58,28,.07,15.2,12.46,27.96,27.33,28.16,14.43.19,27.4-12.94,27.6-27.96Z"/>
          <path class="cls-1" d="m821.54,66.49c8.87-9.17,18.98-14.76,31.71-14.85,19.4-.13,34.09,10.39,38.28,29.75,3.52,16.28,5.46,32.92,7.61,49.46,3.98,30.53,7.63,61.11,11.34,91.68.42,3.49.61,7.04.5,10.55-.91,30.13-29.88,47.82-57.27,35-2.75-1.29-5.4-2.79-8.17-4.23-25.02,18.19-52.88,22.55-81.99,16.21-36.88-8.03-61.46-31.56-74.53-66.41-11.88-31.67-11.95-63.59,2.32-94.98,20.96-46.09,74.25-69.89,122.58-54.55,2.09.66,4.2,1.31,7.63,2.37Zm-.75,103.11c-.27-14.77-12.45-27.11-26.76-27.13-15.97-.02-28.48,12.65-28.15,28.54.3,14.65,13.77,26.98,28.89,26.45,14.41-.51,26.3-13.23,26.03-27.85Z"/>
          <path class="cls-1" d="m1387.24,48.13c59.64-1.1,110.51,46.69,112.69,108.22,2.07,58.3-45.46,113.56-111.1,113.72-66.33.16-112.23-51.3-112.72-107.97-.58-67.38,52.35-113.76,111.13-113.97Zm28.44,111.31c.3-15.42-11.93-28.05-27.16-28.06-15-.01-27.83,12.56-28.23,27.66-.37,13.97,12.35,26.77,26.98,27.16,15.56.42,28.11-11.4,28.4-26.77Z"/>
          <path class="cls-1" d="m672.6,225.33c-.1,21.15-5.64,35.41-21.44,43.73-14.47,7.62-28.9,6.8-42.54-2.33-9.16-6.14-15.45-14.62-16.77-25.74-2.63-22.26-4.72-44.59-7.14-66.89-.71-6.55-1.53-13.12-2.8-19.58-1.57-7.95-7.2-12.57-14.6-12.69-7.38-.12-13.07,4.54-14.78,12.5-.54,2.53-.56,5.27-.33,7.87,1.87,21.04,3.88,42.07,5.79,63.11.99,10.97,1.97,21.84-2.02,32.63-5.85,15.81-18.34,25.55-36.01,26.36-16.91.77-30.14-6.17-37.97-21.34-2.96-5.73-4.86-12.42-5.5-18.85-4.38-44.24-8.41-88.51-12.32-132.79-2.7-30.59,20.85-52.16,50.63-45.89,7.34,1.54,13.51.95,20.39-1.34,49.72-16.52,102.89,7.06,122.76,54.57,3.36,8.04,6.06,16.72,7.02,25.33,3.17,28.43,5.41,56.96,7.64,81.33Z"/>
          <path class="cls-1" d="m450.73,159.91c.96,59.27-48.51,110.17-107.99,111.6-63.87,1.53-113.91-47.4-115.39-106.45-1.67-66.53,49.64-114.84,110.42-115.84,61.58-1.01,113.16,49.6,112.95,110.68Zm-72.97,1.48c2.22-1.77,3.96-3.06,5.59-4.47,4.79-4.15,9.34-8.79,7.6-15.7-1.85-7.37-7.19-12.4-14.53-13.82-4.96-.96-10.38-.3-15.49.43-5,.71-9.85,2.42-14.81,3.7-1.7-3.83-2.68-6.76-4.22-9.36-1.78-3-3.77-5.97-6.18-8.47-4.51-4.69-9.9-7.39-16.61-4.9-5.93,2.2-9.78,8.27-9.63,15.82.09,4.22.91,8.43,1.42,12.86-5.34,1.22-10.07,2.03-14.64,3.4-5.56,1.66-8.82,5.9-9.89,11.37-1.15,5.91,2.18,10.18,6.76,13.28,3.46,2.34,7.33,4.08,11.35,6.27-1.83,3-3.58,5.09-4.5,7.5-4.54,11.89,4.24,23.99,16.99,22.82,4.58-.42,9.2-2.72,13.32-5.01,4.13-2.3,7.68-5.67,11.59-8.65,3.27.9,6.15,2.06,9.14,2.45,6.5.84,13.12,2.14,19.58,1.71,13.35-.88,18.44-10.24,12.64-22.08-1.34-2.74-3.14-5.25-5.5-9.13Z"/>
          <path class="cls-1" d="m1022.18,82.95c-2.83,55.01-5.57,110.02-8.54,165.02-1.5,27.67-19.12,42.77-46.27,40.16-16.31-1.57-29.19-11.65-33.42-27.61-1.88-7.1-2.46-14.81-2.18-22.19,2.4-61.21,5.08-122.41,7.87-183.61.26-5.65,1.31-11.41,2.95-16.83,5.7-18.88,20.98-29.58,40.77-29.08,18.72.47,33.47,12.02,38.13,30.72,1.46,5.88,1.58,12.2,1.53,18.31-.07,8.36-.9,16.72-1.41,25.08.19,0,.38.02.56.03Z"/>
        </g>
        <path class="cls-1" d="m843.17,369.16c3.85,0,7.31-.11,10.77.02,18.04.65,31.39,13.52,32.84,31.59,1.76,21.92-9.02,37.89-28.24,41.31-3.81.68-7.97.68-11.75-.08-5.59-1.12-10.68-2.06-16.65-.56-8.79,2.22-14.39-2.11-16.16-11.18-.92-4.7-.78-9.65-.81-14.49-.09-15-.12-30,.04-45,.04-3.92.39-7.97,1.44-11.72,1.73-6.19,6.32-9.5,12.73-9.68,6.51-.19,10.87,3.19,12.98,9.26,1.12,3.23,1.79,6.62,2.82,10.52Zm16.07,35.92c-2.04-5.41-5.66-9.26-11.69-7.09-2.54.92-5.77,5.26-5.43,7.56.46,3.12,3.58,7.56,6.39,8.29,6.11,1.6,9.45-2.7,10.73-8.76Z"/>
        <path class="cls-1" d="m558.75,392.64c5.18-11.21,9.15-19.94,13.24-28.6,1.5-3.16,2.89-6.5,5.04-9.2,4.46-5.6,11.54-7.05,17.84-4.24,5.85,2.61,9.11,8,8.34,15-.37,3.42-1.48,6.9-2.91,10.05-8.34,18.35-16.96,36.58-25.29,54.94-3.17,6.99-7.94,11.87-15.84,11.92-8.02.06-12.44-5.1-15.63-12.06-8.94-19.54-18.25-38.92-27.28-58.41-4.17-8.99-1.58-16.97,6.5-21.05,7.67-3.88,16.88-1.1,21.36,7.19,3.12,5.77,5.19,12.11,7.74,18.18,1.85,4.41,3.72,8.81,6.88,16.29Z"/>
        <path class="cls-1" d="m749.72,414.32c.62-3.3,1.68-6.82,1.88-10.39.4-7.03-.28-14.16.6-21.11.96-7.64,6.64-12.56,13.04-12.84,6.53-.29,14.35,5.33,14.65,12.71.52,13.05,2.83,26.34-2.58,39.13-6.26,14.79-19.5,23.21-34.26,21.3-14.39-1.87-26.78-13.81-28.42-29-1.08-10.02-.83-20.27-.24-30.36.48-8.05,6.64-13.57,13.53-13.77,7.58-.23,13.16,5.31,13.85,14.62.52,7.02.1,14.1.32,21.14.12,3.9-.07,8.3,7.63,8.57Z"/>
        <path class="cls-1" d="m680.45,392.08c-2.26,1.53-5.13,3.47-8.07,5.46-.34,1.29-.94,2.53-.97,3.79-.16,8.79.04,17.58-.34,26.36-.4,9.33-5.56,14.78-13.3,14.78-7.67,0-12.75-5.48-13.07-14.95-.32-9.64-.07-19.29-.07-29.49-6.03-3.52-13.24-6.01-12.93-14.8.28-7.84,5.22-11.65,11.42-13.53,3.25-15.88,6.9-20.4,15.49-19.88,8.04.48,11.18,4.75,13.37,18.87,8.42,4.36,14.74,10.53,8.46,23.41Z"/>
        <path class="cls-1" d="m462.78,382.58c7.81-1.19,14.91-2.04,18.26,5.55,3.43,7.79-2.8,11.93-8.63,15.6,3.26,7.17,4.54,13.53-1.95,18.56-7.16,5.55-13.2,1.47-19.36-2.79-5.48,5.42-11.71,8.98-18.9,4.42-7.16-4.53-7.1-11.39-3.15-18.78-6.87-4.38-13.06-8.91-10.54-18.04,2.31-8.37,9.74-7.53,16.17-8.36,3.58-6.99,6.87-13.84,16.54-12.52,9.38,1.27,9.75,8.75,11.57,16.37Z"/>
        <path class="cls-1" d="m1111.13,404.63c-7.81-3.55-12.64-8.88-10.29-17.68,2.25-8.42,9.68-7.48,16.4-8.05,3.23-6.76,6.11-14.02,15.86-12.64,8.53,1.2,11.61,6.97,12.66,14.9,7.08,1.32,16.12-.77,18.3,9.06,1.57,7.04-3.91,10.05-9.87,12.9,2.31,6.86,4.99,13.97-1.98,19.25-6.92,5.25-13.18,1.9-19.07-3.24-5.82,5.57-11.87,9.47-19.19,4.76-7.48-4.81-5.81-11.84-2.82-19.26Z"/>
      </g>
      <g>
        <path class="cls-1" d="m950.55,373.1c-10.07,0-18.57,3.43-25.49,10.28-6.92,6.85-10.38,15.25-10.38,25.18s3.43,18.36,10.28,25.12c6.85,6.76,15.31,10.14,25.39,10.14,8.26,0,15.77-2.65,22.53-7.96l-14.5-17.42c-2.36,2.54-4.81,3.81-7.35,3.81-3.19,0-7.91-.89-8.35-4.01-1.27-9.09,16.9-5.59,21.82-5.59h20.63c.18-2.18.27-3.77.27-4.76,0-9.8-3.35-18.05-10.04-24.74-6.69-6.69-14.96-10.04-24.81-10.04Zm3.51,27.66l-3.44.3c-4.01.41-7.55-4.22-6.23-8.03,1.33-3.81,6.81-5.29,9.95-2.76,3.14,2.53,2.95,8.07-.28,10.48Z"/>
        <path class="cls-1" d="m1052.5,373.17c-8.94,0-16.09,2.92-21.44,8.75s-8.03,13.65-8.03,23.45v37.1h25.46v-32.2c0-7.08,2.31-10.62,6.94-10.62,1.45,0,3.06.5,4.83,1.5v-27.23c-3.18-.5-5.76-.75-7.76-.75Z"/>
      </g>
    </g>
  </g>
</svg>