<?xml version="1.0" encoding="UTF-8"?>
<svg id="Camada_2" data-name="Camada 2" xmlns="http://www.w3.org/2000/svg" width="1500" height="338.12" viewBox="0 0 1500 338.12">
  <defs>
    <style>
      .cls-1 {
        stroke-width: 0px;
      }
    </style>
  </defs>
  <g id="logos">
    <g id="TUSKA">
      <path class="cls-1" d="m1363.29,6.85h-124.71l-94.98,225.39-74.23-98.22L1204.15,6.85h-122.7l-111.47,108.28V6.85h-102.46v28.13c-4.07-3.34-8.42-6.47-13.04-9.36-27.15-17-61.84-25.62-103.12-25.62-28.3,0-53.98,3.76-76.33,11.18-13.76,4.57-25.89,10.51-36.25,17.74V6.85h-102.43v195.68c0,40.1-19.86,58.78-62.5,58.78s-62.01-18.68-62.01-58.78V6.85H0v79.65h112.24v248.19h102.44V86.5h94.71v122.89c0,28.2,7.37,52.33,21.92,71.71,14.39,19.18,34.29,33.7,59.13,43.14,24.26,9.21,52.32,13.88,83.41,13.88s59.21-4.67,83.63-13.88c23.1-8.72,41.9-21.76,55.97-38.79,8.08,9.4,18.03,17.7,29.71,24.76,30.56,18.52,69.48,27.91,115.66,27.91,43.26,0,79.81-7.78,108.7-23.14v16.29h102.46v-106.8l27.48-25.64,98.01,132.44h115.08l26.32-68.66h126.19l26.83,68.66h110.11L1363.29,6.85Zm-552,240.29c-1.77,3.3-4.95,6.77-10.67,9.95-10.19,5.65-23.91,8.52-40.81,8.52-20.04,0-36.75-4.03-49.65-11.96-12.01-7.41-18.66-18.82-20.35-34.9l-.92-8.81-50.18,4.4c.05-1.64.07-3.29.07-4.95v-36.75c5.22,3.29,10.78,6.12,16.65,8.44,14.44,5.72,32.99,11.28,55.13,16.5l54.33,12.05c19.14,4.07,32.67,8.4,40.23,12.88,5.71,3.38,8.26,8.2,8.26,15.63,0,2.54-.33,5.69-2.09,9Zm56.23-94.95c-3.14-1.57-6.38-2.99-9.7-4.23-15.13-5.67-35.6-11.35-60.89-16.9l-57.19-12.03c-14.52-2.92-25.28-6.4-32.02-10.33-4.86-2.82-6.94-6.46-6.94-12.16,0-4.12,1.16-10.33,11.17-16.61,8.75-5.49,21.01-8.27,36.44-8.27,17.61,0,31.64,3.39,41.67,10.06,9.55,6.38,15.28,15.4,17.5,27.6l1.43,7.84,58.53-3.4v38.43Zm396.64,39.19l35.53-92.11,35.53,92.11h-71.06Z"/>
    </g>
  </g>
</svg>